<svg id="Слой_1" data-name="Слой 1" xmlns="http://www.w3.org/2000/svg" xmlns:xlink="http://www.w3.org/1999/xlink" viewBox="0 0 1080 1080"><defs><style>.cls-1{fill:none;}.cls-2{isolation:isolate;}.cls-3{clip-path:url(#clip-path);}.cls-4{fill:#a8a8a8;}.cls-5{fill:#a3a3a3;}.cls-6{fill:#9e9e9e;}.cls-7{fill:#999;}.cls-8{fill:#949494;}.cls-9{fill:#8f8f8f;}.cls-10{fill:#8a8a8a;}.cls-11{fill:#858585;}.cls-12{clip-path:url(#clip-path-2);}.cls-13{fill:#b4b4b4;}.cls-14{clip-path:url(#clip-path-3);}.cls-15{clip-path:url(#clip-path-4);}.cls-16{fill:#828282;}.cls-17{fill:#dfdfdf;}</style><clipPath id="clip-path"><path class="cls-1" d="M622.49,565.54l91.17,49.59c29.72,16.17,45.24,46.1,45.16,89.15-.15,80.91-51.3,131.48-145.83,144.77l-91.17-49.6c94.53-13.28,145.67-63.86,145.82-144.77C667.72,611.64,652.21,581.71,622.49,565.54Z"/></clipPath><clipPath id="clip-path-2"><path class="cls-1" d="M749.18,487.05l91.18,49.59c-28-15.25-61.59-22.64-98.57-20.5l-91.17-49.59C687.59,464.4,721.15,471.79,749.18,487.05Z"/></clipPath><clipPath id="clip-path-3"><path class="cls-1" d="M596.43,227.74l91.17,49.59c26.29,14.3,40.44,41.49,40.37,80.13C727.83,429,677.77,477.66,590.3,490l-91.17-49.6c87.47-12.29,137.53-61,137.66-132.48C636.87,269.22,622.71,242,596.43,227.74Z"/></clipPath><clipPath id="clip-path-4"><path class="cls-1" d="M715.14,100.6l91.17,49.6c-39.95-21.74-93-29.28-156.14-20.4L559,80.2C622.15,71.33,675.19,78.87,715.14,100.6Z"/></clipPath></defs><g class="cls-2"><g class="cls-2"><g class="cls-3"><g class="cls-2"><path class="cls-4" d="M613,849.05l-91.17-49.6c25.67-3.61,48.14-10,67.26-18.93l91.17,49.6c-19.12,9-41.59,15.32-67.26,18.93"/><path class="cls-5" d="M680.25,830.12l-91.17-49.6a159.11,159.11,0,0,0,22.79-13L703,817.11a159.11,159.11,0,0,1-22.79,13"/><path class="cls-6" d="M703,817.11l-91.17-49.6a135.86,135.86,0,0,0,13.67-10.76l91.18,49.6A137.13,137.13,0,0,1,703,817.11"/><path class="cls-7" d="M716.72,806.35l-91.18-49.6a124.8,124.8,0,0,0,10.19-10.26l91.18,49.59a126.53,126.53,0,0,1-10.19,10.27"/><path class="cls-8" d="M726.91,796.08l-91.18-49.59a122,122,0,0,0,8.4-10.65l91.17,49.6a122.13,122.13,0,0,1-8.39,10.64"/><path class="cls-9" d="M735.3,785.44l-91.17-49.6a120.78,120.78,0,0,0,7.52-12.21l91.17,49.59a118.07,118.07,0,0,1-7.52,12.22"/><path class="cls-10" d="M742.82,773.22l-91.17-49.59a124.81,124.81,0,0,0,7.22-16.14L750,757.09a124.07,124.07,0,0,1-7.22,16.13"/><path class="cls-11" d="M750,757.09l-91.17-49.6c5.78-15.8,8.74-33.43,8.77-52.81.08-43-15.43-73-45.15-89.14l91.17,49.59c29.72,16.17,45.24,46.1,45.16,89.15,0,19.37-3,37-8.78,52.81"/></g></g></g><g class="cls-2"><g class="cls-12"><g class="cls-2"><path class="cls-4" d="M741.79,516.14l-91.17-49.59a195.89,195.89,0,0,1,60.59,5.59l91.17,49.6a195.86,195.86,0,0,0-60.59-5.6"/><path class="cls-5" d="M802.38,521.74l-91.17-49.6a168.82,168.82,0,0,1,32,11.8l91.17,49.6a168.13,168.13,0,0,0-32-11.8"/><path class="cls-6" d="M834.35,533.54l-91.17-49.6c2,1,4,2,6,3.11l91.18,49.59c-2-1.07-4-2.11-6-3.1"/></g></g></g><polygon class="cls-13" points="471.74 868.9 380.56 819.3 521.82 799.45 612.99 849.05 471.74 868.9"/><g class="cls-2"><g class="cls-14"><g class="cls-2"><path class="cls-4" d="M590.3,490l-91.17-49.6c23.78-3.34,44.79-9.37,62.79-17.81l91.17,49.59c-18,8.45-39,14.48-62.79,17.82"/><path class="cls-5" d="M653.09,472.13l-91.17-49.59a156.38,156.38,0,0,0,22.23-12.7l91.17,49.6a154.84,154.84,0,0,1-22.23,12.69"/><path class="cls-6" d="M675.32,459.44l-91.17-49.6a133.88,133.88,0,0,0,13.31-10.48L688.63,449a134,134,0,0,1-13.31,10.49"/><path class="cls-7" d="M688.63,449l-91.17-49.59a124.7,124.7,0,0,0,9.92-10L698.56,439a121.49,121.49,0,0,1-9.93,10"/><path class="cls-8" d="M698.56,439l-91.18-49.6a116.63,116.63,0,0,0,8-10.2l91.17,49.59a116.65,116.65,0,0,1-8,10.21"/><path class="cls-9" d="M706.6,428.75l-91.17-49.59a114,114,0,0,0,7.06-11.46l91.17,49.6a113.21,113.21,0,0,1-7.06,11.45"/><path class="cls-10" d="M713.66,417.3l-91.17-49.6a115,115,0,0,0,6.7-15l91.17,49.59a115.7,115.7,0,0,1-6.7,15"/><path class="cls-11" d="M720.36,402.33l-91.17-49.59a131,131,0,0,0,7.6-44.87c.08-38.65-14.08-65.84-40.36-80.13l91.17,49.59c26.29,14.3,40.44,41.49,40.37,80.13a131,131,0,0,1-7.61,44.87"/></g></g></g><polygon class="cls-13" points="472.41 506.52 381.24 456.92 499.13 440.35 590.3 489.95 472.41 506.52"/><g class="cls-2"><g class="cls-15"><g class="cls-2"><path class="cls-4" d="M650.17,129.8,559,80.2c42.9-6,81.13-4.48,113.76,3.94l91.17,49.6c-32.63-8.43-70.86-10-113.76-3.94"/><path class="cls-5" d="M763.93,133.74l-91.17-49.6a188.56,188.56,0,0,1,36.15,13.24L800.08,147a189.22,189.22,0,0,0-36.15-13.23"/><path class="cls-6" d="M800.08,147,708.91,97.38c2.11,1,4.19,2.11,6.23,3.22l91.17,49.6q-3.06-1.66-6.23-3.23"/></g></g></g><polygon class="cls-16" points="307.42 1023.9 216.25 974.3 217.82 128.15 308.99 177.75 307.42 1023.9"/><path class="cls-17" d="M741.79,516.14C848.26,510,926.33,582.83,926.12,694.83c-.27,148.95-104.21,256.76-271.55,280.28L307.42,1023.9,309,177.75,650.17,129.8c147.23-20.69,239.44,47.83,239.2,177.42C889.2,399.87,825,486.28,741.8,511.45ZM613,849.05c94.53-13.29,145.68-63.86,145.83-144.77.14-79.17-52.47-114-149.18-100.39L472.19,623.21l-.45,245.69L613,849.05M472.82,286.63l-.41,219.89L590.3,490C677.77,477.66,727.83,429,728,357.46c.12-68-43.82-100.53-120.42-89.77L472.82,286.63"/><polygon class="cls-13" points="308.99 177.75 217.82 128.15 559 80.2 650.17 129.8 308.99 177.75"/></g></svg>