<svg width="153" height="104" viewBox="0 0 153 104" fill="none" xmlns="http://www.w3.org/2000/svg">
<path d="M19.272 95H15.4438V70.3394H30.5342V73.6548H19.272V95ZM35.627 86.9336C35.513 88.6084 35.2681 90.0667 34.8921 91.3086C34.5275 92.5391 33.9578 93.4904 33.1831 94.1626C32.4198 94.8348 31.3602 95.1709 30.0044 95.1709C29.6626 95.1709 29.3664 95.1481 29.1157 95.1025C28.8651 95.0684 28.6714 95.0285 28.5347 94.9829V91.7529C28.6258 91.7757 28.7511 91.7985 28.9106 91.8213C29.0701 91.8441 29.2638 91.8555 29.4917 91.8555C30.1183 91.8555 30.6139 91.6561 30.9785 91.2573C31.3431 90.8586 31.6165 90.2775 31.7988 89.5142C31.9925 88.7508 32.1292 87.8223 32.209 86.7285L32.8413 77.0215H46.0176V95H42.292V79.978H36.1226L35.627 86.9336ZM55.2974 95.3247C54.1011 95.3247 53.0529 95.0968 52.1528 94.6411C51.2528 94.1854 50.5521 93.5474 50.0508 92.7271C49.5495 91.9067 49.2988 90.9611 49.2988 89.8901V89.856C49.2988 88.8078 49.5609 87.9077 50.085 87.1558C50.609 86.3924 51.3667 85.7886 52.3579 85.3442C53.3605 84.8999 54.5682 84.6379 55.981 84.5581L62.7827 84.1479V86.7456L56.4766 87.1387C55.3714 87.207 54.5169 87.4748 53.9131 87.9419C53.3206 88.3976 53.0244 89.0072 53.0244 89.7705V89.8047C53.0244 90.5908 53.3206 91.2118 53.9131 91.6675C54.5169 92.1232 55.3145 92.3511 56.3057 92.3511C57.1715 92.3511 57.9463 92.1745 58.6299 91.8213C59.3249 91.4681 59.8717 90.9839 60.2705 90.3687C60.6693 89.742 60.8687 89.0413 60.8687 88.2666V82.9175C60.8687 81.9263 60.561 81.1515 59.9458 80.5933C59.3306 80.0236 58.4476 79.7388 57.2969 79.7388C56.2373 79.7388 55.3828 79.9666 54.7334 80.4224C54.0954 80.8781 53.6966 81.4648 53.5371 82.1826L53.5029 82.3364H50.0166L50.0337 82.1484C50.1248 81.1117 50.4723 80.1831 51.0762 79.3628C51.68 78.5311 52.5174 77.876 53.5884 77.3975C54.6593 76.9189 55.9297 76.6797 57.3994 76.6797C58.8691 76.6797 60.1395 76.9246 61.2104 77.4146C62.2814 77.9045 63.1131 78.5938 63.7056 79.4824C64.298 80.3711 64.5942 81.4136 64.5942 82.6099V95H60.8687V92.1631H60.8003C60.4471 92.8125 59.9914 93.3765 59.4331 93.855C58.8748 94.3221 58.2425 94.6867 57.5361 94.9487C56.8411 95.1994 56.0949 95.3247 55.2974 95.3247ZM68.4736 95V77.0215H76.6426C78.3971 77.0215 79.7757 77.4316 80.7783 78.252C81.7809 79.0723 82.2822 80.1945 82.2822 81.6187V81.6528C82.2822 82.5871 81.986 83.4302 81.3936 84.1821C80.8125 84.9227 80.089 85.3784 79.2231 85.5493V85.686C79.9979 85.7886 80.6701 86.0278 81.2397 86.4038C81.8208 86.7684 82.2708 87.2412 82.5898 87.8223C82.9202 88.4033 83.0854 89.0641 83.0854 89.8047V89.8389C83.0854 90.887 82.8291 91.7985 82.3164 92.5732C81.8037 93.348 81.0745 93.9461 80.1289 94.3677C79.1833 94.7892 78.0553 95 76.7451 95H68.4736ZM72.1479 92.2656H76.0615C77.1097 92.2656 77.9072 92.0492 78.4541 91.6162C79.001 91.1833 79.2744 90.5396 79.2744 89.6851V89.6509C79.2744 88.7964 78.9725 88.1641 78.3687 87.7539C77.7648 87.3324 76.859 87.1216 75.6514 87.1216H72.1479V92.2656ZM72.1479 84.4385H75.4976C76.5457 84.4385 77.3262 84.2448 77.8389 83.8574C78.3516 83.4701 78.6079 82.8776 78.6079 82.0801V82.0459C78.6079 81.2939 78.3743 80.7243 77.9072 80.3369C77.4401 79.9495 76.7622 79.7559 75.8735 79.7559H72.1479V84.4385ZM98.1416 95V87.1899H90.0581V95H86.3496V77.0215H90.0581V84.2505H98.1416V77.0215H101.85V95H98.1416ZM111.079 95.3247C109.882 95.3247 108.834 95.0968 107.934 94.6411C107.034 94.1854 106.333 93.5474 105.832 92.7271C105.331 91.9067 105.08 90.9611 105.08 89.8901V89.856C105.08 88.8078 105.342 87.9077 105.866 87.1558C106.39 86.3924 107.148 85.7886 108.139 85.3442C109.142 84.8999 110.349 84.6379 111.762 84.5581L118.564 84.1479V86.7456L112.258 87.1387C111.153 87.207 110.298 87.4748 109.694 87.9419C109.102 88.3976 108.806 89.0072 108.806 89.7705V89.8047C108.806 90.5908 109.102 91.2118 109.694 91.6675C110.298 92.1232 111.096 92.3511 112.087 92.3511C112.953 92.3511 113.728 92.1745 114.411 91.8213C115.106 91.4681 115.653 90.9839 116.052 90.3687C116.451 89.742 116.65 89.0413 116.65 88.2666V82.9175C116.65 81.9263 116.342 81.1515 115.727 80.5933C115.112 80.0236 114.229 79.7388 113.078 79.7388C112.019 79.7388 111.164 79.9666 110.515 80.4224C109.877 80.8781 109.478 81.4648 109.318 82.1826L109.284 82.3364H105.798L105.815 82.1484C105.906 81.1117 106.254 80.1831 106.857 79.3628C107.461 78.5311 108.299 77.876 109.37 77.3975C110.441 76.9189 111.711 76.6797 113.181 76.6797C114.65 76.6797 115.921 76.9246 116.992 77.4146C118.063 77.9045 118.894 78.5938 119.487 79.4824C120.079 80.3711 120.375 81.4136 120.375 82.6099V95H116.65V92.1631H116.582C116.228 92.8125 115.773 93.3765 115.214 93.855C114.656 94.3221 114.024 94.6867 113.317 94.9487C112.622 95.1994 111.876 95.3247 111.079 95.3247ZM134.526 95V88.8306H131.638L127.297 95H123.076L127.98 88.2153C126.739 87.828 125.753 87.1899 125.024 86.3013C124.306 85.4126 123.947 84.3473 123.947 83.1055V83.0713C123.947 81.8294 124.232 80.7585 124.802 79.8584C125.383 78.9469 126.192 78.2463 127.229 77.7563C128.277 77.2664 129.496 77.0215 130.886 77.0215H138.2V95H134.526ZM131.091 85.9766H134.526V79.9438H131.091C130.043 79.9438 129.217 80.223 128.613 80.7812C128.009 81.3281 127.707 82.0858 127.707 83.0542V83.0884C127.707 83.9315 128.009 84.6265 128.613 85.1733C129.217 85.7088 130.043 85.9766 131.091 85.9766Z" fill="white"/>
<path d="M111.125 63.375H106.25V41.4375L106.963 42.1505C107.421 42.6078 108.042 42.8645 108.69 42.8639C109.337 42.8633 109.958 42.6056 110.415 42.1474C110.872 41.6892 111.129 41.0681 111.129 40.4207C111.128 39.7733 110.87 39.1527 110.412 38.6953L80.446 8.73843C79.5319 7.82488 78.2924 7.31171 77 7.31171C75.7076 7.31171 74.4681 7.82488 73.554 8.73843L43.588 38.6953C43.131 39.1527 42.8744 39.7729 42.8747 40.4194C42.875 41.0659 43.1321 41.6859 43.5895 42.1428C44.0469 42.5998 44.667 42.8564 45.3136 42.8561C45.9601 42.8558 46.5801 42.5987 47.037 42.1413L47.75 41.4375V63.375H42.875C42.2285 63.375 41.6085 63.6318 41.1514 64.0889C40.6943 64.546 40.4375 65.166 40.4375 65.8125C40.4375 66.459 40.6943 67.0789 41.1514 67.5361C41.6085 67.9932 42.2285 68.25 42.875 68.25H111.125C111.771 68.25 112.391 67.9932 112.849 67.5361C113.306 67.0789 113.562 66.459 113.562 65.8125C113.562 65.166 113.306 64.546 112.849 64.0889C112.391 63.6318 111.771 63.375 111.125 63.375ZM52.625 36.5625L77 12.1875L101.375 36.5625V63.375H86.75V46.3125C86.75 45.666 86.4932 45.046 86.0361 44.5889C85.579 44.1318 84.959 43.875 84.3125 43.875H69.6875C69.041 43.875 68.421 44.1318 67.9639 44.5889C67.5068 45.046 67.25 45.666 67.25 46.3125V63.375H52.625V36.5625ZM81.875 63.375H72.125V48.75H81.875V63.375Z" fill="white"/>
</svg>
