<svg width="361" height="361" viewBox="0 0 361 361" fill="none" xmlns="http://www.w3.org/2000/svg">
<g clip-path="url(#clip0_4078_10)">
<rect width="361" height="361" rx="58" fill="#F69606"/>
<path d="M128.246 101.007H128.211C128.034 93.7502 122.065 88.1185 114.803 88.0187V88H65.8757V88.0343C58.6816 88.212 53.1933 93.8095 53.0312 101.01H53V260.669H53.0249C53.159 267.841 58.7565 273.42 65.8757 273.698V274H114.803C122.29 273.997 128.246 268.153 128.246 260.672V101.007ZM90.6197 258.446C79.8833 258.446 71.1831 249.739 71.1831 239.006C71.1831 228.269 79.8864 219.566 90.6197 219.566C101.359 219.566 110.063 228.269 110.063 239.006C110.063 249.742 101.359 258.446 90.6197 258.446ZM112.691 188.564H68.5512V103.551H112.691V188.564Z" fill="white"/>
<path d="M219.043 101.007H219.008C218.831 93.7502 212.862 88.1185 205.599 88.0187V88H156.673V88.0343C149.478 88.212 143.99 93.8095 143.828 101.01H143.797V260.669H143.822C143.956 267.841 149.553 273.42 156.673 273.698V274H205.599C213.087 273.997 219.043 268.153 219.043 260.672V101.007ZM181.417 258.446C170.68 258.446 161.98 249.739 161.98 239.006C161.98 228.269 170.683 219.566 181.417 219.566C192.156 219.566 200.859 228.269 200.859 239.006C200.859 249.742 192.156 258.446 181.417 258.446ZM203.488 188.564H159.351V103.551H203.491L203.488 188.564Z" fill="white"/>
<path d="M309.84 101.007H309.805C309.628 93.7502 303.659 88.1185 296.396 88.0187V88H247.47V88.0343C240.275 88.212 234.787 93.8095 234.625 101.01H234.594V260.669H234.619C234.753 267.841 240.35 273.42 247.47 273.698V274H296.396C303.884 273.997 309.84 268.153 309.84 260.672V101.007ZM272.217 258.446C261.48 258.446 252.78 249.739 252.78 239.006C252.78 228.269 261.483 219.566 272.217 219.566C282.956 219.566 291.66 228.269 291.66 239.006C291.66 249.742 282.953 258.446 272.217 258.446ZM294.288 188.564H250.148V103.551H294.288V188.564Z" fill="white"/>
</g>
<defs>
<clipPath id="clip0_4078_10">
<rect width="361" height="361" fill="white"/>
</clipPath>
</defs>
</svg>
