<svg width="361" height="361" viewBox="0 0 361 361" fill="none" xmlns="http://www.w3.org/2000/svg">
<g clip-path="url(#clip0_4076_2)">
<path d="M272.547 182.284C277.388 186.075 280.216 191.881 280.216 198.03V281.059C280.216 292.105 271.262 301.059 260.216 301.059H229.431C218.385 301.059 209.431 292.105 209.431 281.059V250.59C209.431 239.544 200.476 230.59 189.431 230.59H170.571C159.525 230.59 150.571 239.544 150.571 250.59V281.059C150.571 292.105 141.617 301.059 130.571 301.059H99.7856C88.7399 301.059 79.7856 292.105 79.7856 281.059V198.03C79.7856 191.881 82.6137 186.075 87.4545 182.284L167.67 119.466C174.913 113.794 185.09 113.794 192.332 119.466L272.547 182.284Z" fill="white"/>
<path d="M43.8153 186.913C39.4166 180.552 40.7002 171.87 46.7516 167.053L167.545 70.9128C174.835 65.1109 185.165 65.111 192.455 70.9129L313.248 167.053C319.3 171.87 320.583 180.552 316.185 186.913C311.347 193.91 301.598 195.351 294.942 190.054L192.455 108.483C185.165 102.681 174.835 102.681 167.545 108.483L65.0579 190.054C58.4022 195.351 48.6533 193.91 43.8153 186.913Z" fill="white"/>
</g>
<defs>
<clipPath id="clip0_4076_2">
<rect width="361" height="361" fill="white"/>
</clipPath>
</defs>
</svg>
