<svg width="361" height="361" viewBox="0 0 361 361" fill="none" xmlns="http://www.w3.org/2000/svg">
<g clip-path="url(#clip0_4076_62)">
<path d="M270.371 78.1631C267.47 76.1057 263.741 75.5754 260.381 76.7568L135.455 120.478C119.703 119.73 108.974 115.414 101.58 110.6C99.3535 109.154 98.871 108.302 98.871 108.302C97.5367 106.968 97.0224 105.119 97.4004 103.214C97.7862 101.309 99.1446 99.7505 100.977 99.1075L212.778 59.9834C214.458 59.3888 216.323 59.6537 217.769 60.6825C217.898 60.7792 218.011 60.9078 218.131 61.0039L226.312 58.0463C225.806 55.2415 224.287 52.7016 221.916 51.0299C219.015 48.9642 215.285 48.4421 211.926 49.6154L94.3539 90.7645C89.9494 92.3076 87 96.4709 87 101.132V104.001V285.218C87 285.218 94.7479 310.422 135.455 312.359L260.285 268.67C269.093 265.583 275 257.266 275 247.926V87.1244C275.001 83.5639 273.273 80.2206 270.371 78.1631Z" fill="white"/>
<path d="M112.856 103.656L117.814 106.019L230.774 66.4772L225.806 64.1143L112.856 103.656Z" fill="white"/>
<path d="M131.453 112.449L244.267 72.9552L239.332 70.5845L126.494 110.086L131.453 112.449Z" fill="white"/>
</g>
<defs>
<clipPath id="clip0_4076_62">
<rect width="361" height="361" fill="white"/>
</clipPath>
</defs>
</svg>
