<svg id="Слой_1" data-name="Слой 1" xmlns="http://www.w3.org/2000/svg" xmlns:xlink="http://www.w3.org/1999/xlink" viewBox="0 0 560 288"><defs><style>.cls-1{fill:none;}.cls-2{isolation:isolate;}.cls-3{fill:#1f7f4a;}.cls-4{fill:#186239;}.cls-5{fill:#165a35;}.cls-6{fill:#269d5c;}.cls-7{clip-path:url(#clip-path);}.cls-8{fill:#9e9e9e;}.cls-9{fill:#a3a3a3;}.cls-10{fill:#a8a8a8;}.cls-11{clip-path:url(#clip-path-2);}.cls-12{fill:#999;}.cls-13{fill:#949494;}.cls-14{fill:#8f8f8f;}.cls-15{fill:#8a8a8a;}.cls-16{fill:#858585;}.cls-17{clip-path:url(#clip-path-3);}.cls-18{clip-path:url(#clip-path-4);}.cls-19{fill:#dfdfdf;}.cls-20{fill:#8d1e21;}.cls-21{fill:#661617;}.cls-22{fill:#641617;}.cls-23{fill:#ae2628;}.cls-24{fill:#165c36;}.cls-25{fill:gray;}.cls-26{clip-path:url(#clip-path-5);}.cls-27{fill:#b4b4b4;}.cls-28{clip-path:url(#clip-path-6);}.cls-29{fill:#828282;}.cls-30{fill:#6e1819;}.cls-31{clip-path:url(#clip-path-7);}.cls-32{fill:#1d7745;}.cls-33{fill:#1c7343;}.cls-34{fill:#1b7041;}.cls-35{fill:#1a6c3f;}.cls-36{fill:#1a683d;}.cls-37{fill:#19653b;}.cls-38{fill:#186139;}.cls-39{fill:#175e37;}.cls-40{clip-path:url(#clip-path-8);}.cls-41{clip-path:url(#clip-path-9);}.cls-42{clip-path:url(#clip-path-10);}</style><clipPath id="clip-path"><path class="cls-1" d="M413.73,158.78,385,143.16a17.09,17.09,0,0,0,10.75,1.68l28.72,15.63A17.09,17.09,0,0,1,413.73,158.78Z"/></clipPath><clipPath id="clip-path-2"><path class="cls-1" d="M406.53,87.9l28.72,15.63c6.67,3.63,10.59,12.32,10.56,24.7,0,17.92-8.36,30.41-21.33,32.24l-28.72-15.63c13-1.82,21.3-14.31,21.33-32.24C417.12,100.23,413.2,91.53,406.53,87.9Z"/></clipPath><clipPath id="clip-path-3"><path class="cls-1" d="M417.41,74.43l28.72,15.63c-5.88-3.2-13.14-4.35-21.51-3.17L395.9,71.27C404.27,70.09,411.53,71.24,417.41,74.43Z"/></clipPath><clipPath id="clip-path-4"><path class="cls-1" d="M402.91,172.32,374.19,156.7c-10.6-5.77-16.67-18.21-16.64-35.73.05-27.29,14.82-46.39,38.35-49.7l28.72,15.62c-23.53,3.31-38.3,22.41-38.35,49.71C386.24,154.12,392.31,166.56,402.91,172.32Z"/></clipPath><clipPath id="clip-path-5"><path class="cls-1" d="M216.59,114.22l28.72,15.63c3.38,1.84,5.31,5.54,5.3,10.63,0,8.48-4.91,14.33-13.27,15.51l-28.72-15.62c8.36-1.18,13.26-7,13.27-15.52C221.9,119.77,220,116.07,216.59,114.22Z"/></clipPath><clipPath id="clip-path-6"><path class="cls-1" d="M228.54,101.19l28.72,15.63c-4.66-2.54-10.8-3.4-18.24-2.36L210.3,98.84C217.74,97.79,223.88,98.66,228.54,101.19Z"/></clipPath><clipPath id="clip-path-7"><path class="cls-1" d="M69,168.7l28.72,15.62c3,1.64,4.58,4.67,4.57,9,0,8.18-5.19,13.3-14.75,14.65L58.86,192.37c9.57-1.34,14.74-6.46,14.76-14.65C73.62,173.37,72.05,170.34,69,168.7Z"/></clipPath><clipPath id="clip-path-8"><path class="cls-1" d="M81.87,160.76l28.72,15.63a18.47,18.47,0,0,0-10-2.08L71.9,158.69A18.46,18.46,0,0,1,81.87,160.76Z"/></clipPath><clipPath id="clip-path-9"><path class="cls-1" d="M66.41,134.52l28.72,15.62c2.66,1.45,4.09,4.2,4.08,8.11,0,7.24-5.07,12.17-13.92,13.41L56.57,156c8.85-1.24,13.91-6.17,13.92-13.41C70.5,138.72,69.07,136,66.41,134.52Z"/></clipPath><clipPath id="clip-path-10"><path class="cls-1" d="M78.43,121.66l28.72,15.62c-4.05-2.2-9.42-3-15.81-2.06L62.62,119.59C69,118.7,74.38,119.46,78.43,121.66Z"/></clipPath></defs><g class="cls-2"><polygon class="cls-3" points="502.34 144.61 473.62 128.98 474 128.93 502.72 144.55 502.34 144.61"/><polygon class="cls-4" points="502.72 144.55 474 128.93 492.27 59.21 520.99 74.83 502.72 144.55"/><polygon class="cls-3" points="520.99 74.83 492.27 59.21 510.36 56.67 539.08 72.29 520.99 74.83"/><polygon class="cls-3" points="465.74 82.6 437.01 66.98 455.6 64.36 484.32 79.99 465.74 82.6"/><polygon class="cls-5" points="492.24 164.47 463.52 148.85 437.01 66.98 465.74 82.6 492.24 164.47"/><polygon class="cls-6" points="539.08 72.29 512.25 161.66 492.24 164.47 465.74 82.6 484.32 79.99 502.34 144.61 502.72 144.55 520.99 74.83 539.08 72.29"/></g><g class="cls-2"><g class="cls-2"><g class="cls-7"><g class="cls-2"><path class="cls-8" d="M413.73,158.78,385,143.16l.55.28,28.72,15.63-.55-.29"/><path class="cls-9" d="M414.28,159.07l-28.72-15.63a14.81,14.81,0,0,0,2.92,1.08l28.72,15.62a15.44,15.44,0,0,1-2.92-1.07"/><path class="cls-10" d="M417.2,160.14l-28.72-15.62a18.64,18.64,0,0,0,7.28.32l28.72,15.63a18.44,18.44,0,0,1-7.28-.33"/></g></g></g><g class="cls-2"><g class="cls-11"><g class="cls-2"><path class="cls-10" d="M424.48,160.47l-28.72-15.63a21.25,21.25,0,0,0,6.18-1.82l28.72,15.63a21.89,21.89,0,0,1-6.18,1.82"/><path class="cls-9" d="M430.66,158.65,401.94,143a20.55,20.55,0,0,0,3.05-1.75l28.72,15.62a21.54,21.54,0,0,1-3,1.76"/><path class="cls-8" d="M433.71,156.89,405,141.27a20.65,20.65,0,0,0,2.22-1.76l28.72,15.63a21.88,21.88,0,0,1-2.22,1.75"/><path class="cls-12" d="M435.93,155.14l-28.72-15.63a23.08,23.08,0,0,0,1.91-1.92l28.72,15.62a23.21,23.21,0,0,1-1.91,1.93"/><path class="cls-13" d="M437.84,153.21l-28.72-15.62a28.29,28.29,0,0,0,1.77-2.25L439.61,151a26.59,26.59,0,0,1-1.77,2.25"/><path class="cls-14" d="M439.61,151l-28.72-15.62a28.17,28.17,0,0,0,1.76-2.87l28.72,15.62a28.17,28.17,0,0,1-1.76,2.87"/><path class="cls-15" d="M441.37,148.09l-28.72-15.62a32.77,32.77,0,0,0,1.89-4.24l28.72,15.63a33.25,33.25,0,0,1-1.89,4.23"/><path class="cls-16" d="M443.26,143.86l-28.72-15.63a45.81,45.81,0,0,0,2.55-15.63c0-12.37-3.89-21.07-10.56-24.7l28.72,15.63c6.67,3.63,10.59,12.32,10.56,24.7a45.81,45.81,0,0,1-2.55,15.63"/></g></g></g><g class="cls-2"><g class="cls-17"><g class="cls-2"><path class="cls-10" d="M424.62,86.89,395.9,71.27a38.46,38.46,0,0,1,14.93.59l28.72,15.63a38.45,38.45,0,0,0-14.93-.6"/><path class="cls-9" d="M439.55,87.49,410.83,71.86a29.57,29.57,0,0,1,5.55,2L445.1,89.52a28.87,28.87,0,0,0-5.55-2"/><path class="cls-8" d="M445.1,89.52,416.38,73.9c.35.17.69.35,1,.53l28.72,15.63c-.34-.19-.69-.37-1-.54"/></g></g></g><g class="cls-2"><g class="cls-18"><g class="cls-2"><path class="cls-16" d="M402.91,172.32,374.19,156.7c-10.6-5.77-16.67-18.21-16.64-35.73a62.41,62.41,0,0,1,3.57-21.37l28.72,15.62a62.47,62.47,0,0,0-3.57,21.38c0,17.52,6,30,16.64,35.72"/><path class="cls-15" d="M389.84,115.22,361.12,99.6A48,48,0,0,1,364,93.25l28.72,15.63a47.89,47.89,0,0,0-2.84,6.34"/><path class="cls-14" d="M392.68,108.88,364,93.25a46.87,46.87,0,0,1,2.78-4.53l28.72,15.63a44.55,44.55,0,0,0-2.78,4.53"/><path class="cls-13" d="M395.46,104.35,366.74,88.72A42.91,42.91,0,0,1,369.69,85l28.72,15.63a41.46,41.46,0,0,0-3,3.74"/><path class="cls-12" d="M398.41,100.61,369.69,85A40.14,40.14,0,0,1,373,81.64l28.72,15.62a40.27,40.27,0,0,0-3.31,3.35"/><path class="cls-8" d="M401.72,97.26,373,81.64a39.86,39.86,0,0,1,4-3.19l28.72,15.62a41.32,41.32,0,0,0-4,3.19"/><path class="cls-9" d="M405.76,94.07,377,78.45a40.78,40.78,0,0,1,5.82-3.36l28.72,15.63a39.79,39.79,0,0,0-5.82,3.35"/><path class="cls-10" d="M411.58,90.72,382.86,75.09a45.5,45.5,0,0,1,13-3.82l28.72,15.62a45.1,45.1,0,0,0-13,3.83"/></g></g></g><path class="cls-19" d="M424.62,86.89c23.47-3.3,38.23,11.66,38.18,39s-14.87,46.35-38.34,49.65-38.24-11.66-38.19-38.89S401.09,90.2,424.62,86.89Zm-.14,73.58c13-1.83,21.3-14.32,21.33-32.24s-8.25-28.2-21.22-26.38-21.35,14.38-21.38,32.37,8.24,28.08,21.27,26.25"/></g><g class="cls-2"><polygon class="cls-20" points="359.2 153.33 330.48 137.71 330.92 137.65 359.64 153.27 359.2 153.33"/><polygon class="cls-21" points="359.64 153.27 330.92 137.65 331.02 81.87 359.74 97.5 359.64 153.27"/><polygon class="cls-20" points="359.74 97.5 331.02 81.87 346.91 79.64 375.63 95.26 359.74 97.5"/><polygon class="cls-22" points="361.73 182.81 333.01 167.19 296 116.34 324.72 131.96 361.73 182.81"/><polygon class="cls-20" points="308.39 104.71 279.67 89.09 293.53 87.14 322.25 102.76 308.39 104.71"/><polygon class="cls-21" points="308.24 190.33 279.51 174.71 279.67 89.09 308.39 104.71 308.24 190.33"/><polygon class="cls-23" points="375.63 95.26 375.47 180.88 361.73 182.81 324.72 131.96 324.22 132.03 324.12 188.1 308.24 190.33 308.39 104.71 322.25 102.76 359.2 153.33 359.64 153.27 359.74 97.5 375.63 95.26"/></g><g class="cls-2"><polygon class="cls-24" points="278.44 194.52 249.72 178.9 249.88 93.28 278.6 108.9 278.44 194.52"/><polygon class="cls-3" points="278.6 108.9 249.88 93.28 266.48 90.94 295.2 106.57 278.6 108.9"/><polygon class="cls-6" points="295.2 106.57 295.04 192.19 278.44 194.52 278.6 108.9 295.2 106.57"/></g><g class="cls-2"><polygon class="cls-25" points="251.06 198.37 222.34 182.75 207.61 153.5 236.33 169.12 251.06 198.37"/><g class="cls-2"><g class="cls-26"><g class="cls-2"><path class="cls-10" d="M237.34,156l-28.72-15.62a17.78,17.78,0,0,0,5.06-1.47l28.72,15.63a17.77,17.77,0,0,1-5.06,1.46"/><path class="cls-9" d="M242.4,154.53,213.68,138.9a15.12,15.12,0,0,0,2.09-1.19l28.72,15.62a14.21,14.21,0,0,1-2.09,1.2"/><path class="cls-8" d="M244.49,153.33l-28.72-15.62a13.37,13.37,0,0,0,1.37-1.09l28.72,15.63a13.29,13.29,0,0,1-1.37,1.08"/><path class="cls-12" d="M245.86,152.25l-28.72-15.63a13.76,13.76,0,0,0,1.08-1.08l28.72,15.62a13.88,13.88,0,0,1-1.08,1.09"/><path class="cls-13" d="M246.94,151.16l-28.72-15.62c.33-.38.64-.77.93-1.18L247.87,150a12.08,12.08,0,0,1-.93,1.18"/><path class="cls-14" d="M247.87,150l-28.72-15.62A12.88,12.88,0,0,0,220,133l28.72,15.62a12.88,12.88,0,0,1-.85,1.39"/><path class="cls-15" d="M248.72,148.59,220,133a13.56,13.56,0,0,0,.85-1.9l28.72,15.62a13.06,13.06,0,0,1-.85,1.9"/><path class="cls-16" d="M249.57,146.69l-28.72-15.62a18,18,0,0,0,1-6.22c0-5.08-1.92-8.78-5.3-10.63l28.72,15.63c3.38,1.84,5.31,5.54,5.3,10.63a18,18,0,0,1-1,6.21"/></g></g></g><polygon class="cls-27" points="223.05 158 194.33 142.37 208.62 140.37 237.34 155.99 223.05 158"/><g class="cls-2"><g class="cls-28"><g class="cls-2"><path class="cls-10" d="M239,114.46,210.3,98.84a34.45,34.45,0,0,1,13.29.43l28.72,15.63a34.24,34.24,0,0,0-13.29-.44"/><path class="cls-9" d="M252.31,114.9,223.59,99.27a21.87,21.87,0,0,1,4.21,1.54l28.72,15.62a21.86,21.86,0,0,0-4.21-1.53"/><path class="cls-8" d="M256.52,116.43,227.8,100.81l.74.38,28.72,15.63-.74-.39"/></g></g></g><polygon class="cls-27" points="206.52 119.03 177.8 103.41 210.3 98.84 239.02 114.46 206.52 119.03"/><polygon class="cls-29" points="206.36 204.65 177.64 189.03 177.8 103.41 206.52 119.03 206.36 204.65"/><path class="cls-19" d="M253.21,164.08l16.65,31.65-18.8,2.64-14.73-29.25L223,171,223,202.32l-16.6,2.33.16-85.62,32.5-4.57c18.24-2.56,28.67,6.35,28.64,23.26C267.64,148.71,262.34,158.94,253.21,164.08ZM237.34,156c8.36-1.18,13.26-7,13.27-15.51,0-8.31-5.14-12.93-13.38-11.77l-14.13,2,0,27.31,14.29-2"/></g><g class="cls-2"><polygon class="cls-22" points="180.63 208.27 151.91 192.64 145.9 172.72 174.62 188.35 180.63 208.27"/><polygon class="cls-20" points="150.35 178.35 121.63 162.73 142.35 159.82 171.07 175.44 150.35 178.35"/><polygon class="cls-22" points="171.07 175.44 142.35 159.82 132.25 126.18 160.97 141.8 171.07 175.44"/><polygon class="cls-20" points="151.32 126.79 122.61 111.16 142.12 108.42 170.84 124.04 151.32 126.79"/><polygon class="cls-30" points="123.62 216.28 94.9 200.66 122.61 111.16 151.32 126.79 123.62 216.28"/><path class="cls-23" d="M170.84,124l27.44,81.75-17.65,2.48-6-19.92-27.87,3.92-6.09,21.61-17,2.4,27.71-89.49Zm-20.49,54.31,20.72-2.91L161,141.8l-.38.06-10.24,36.49"/></g><g class="cls-2"><g class="cls-2"><g class="cls-31"><g class="cls-2"><path class="cls-32" d="M87.58,208,58.86,192.37a23.47,23.47,0,0,0,6.8-1.91l28.72,15.62a23.78,23.78,0,0,1-6.8,1.92"/><path class="cls-33" d="M94.38,206.08,65.66,190.46A15.12,15.12,0,0,0,68,189.14l28.72,15.63a16,16,0,0,1-2.31,1.31"/><path class="cls-34" d="M96.69,204.77,68,189.14a12.49,12.49,0,0,0,1.38-1.09l28.72,15.63a15,15,0,0,1-1.38,1.09"/><path class="cls-35" d="M98.07,203.68,69.35,188.05a12.65,12.65,0,0,0,1-1l28.72,15.62a12.76,12.76,0,0,1-1,1"/><path class="cls-36" d="M99.11,202.64,70.39,187c.3-.35.58-.71.85-1.08L100,201.56c-.27.37-.55.73-.85,1.08"/><path class="cls-37" d="M100,201.56,71.24,185.94A14.17,14.17,0,0,0,72,184.7l28.72,15.62a12.83,12.83,0,0,1-.76,1.24"/><path class="cls-38" d="M100.72,200.32,72,184.7a12.62,12.62,0,0,0,.73-1.63l28.72,15.62a12.62,12.62,0,0,1-.73,1.63"/><path class="cls-39" d="M101.45,198.69,72.73,183.07a15.83,15.83,0,0,0,.89-5.35c0-4.35-1.57-7.38-4.58-9l28.72,15.62c3,1.64,4.58,4.67,4.57,9a15.58,15.58,0,0,1-.88,5.34"/></g></g></g><g class="cls-2"><g class="cls-40"><g class="cls-2"><path class="cls-32" d="M100.62,174.31,71.9,158.69a19.48,19.48,0,0,1,6.13.57l28.72,15.62a20.08,20.08,0,0,0-6.13-.57"/><path class="cls-33" d="M106.75,174.88,78,159.26a16.36,16.36,0,0,1,3.23,1.19L110,176.07a17.73,17.73,0,0,0-3.23-1.19"/><path class="cls-34" d="M110,176.07,81.26,160.45l.61.31,28.72,15.63c-.2-.11-.4-.22-.61-.32"/></g></g></g><polygon class="cls-3" points="73.29 210.01 44.57 194.38 58.86 192.37 87.58 208 73.29 210.01"/><g class="cls-2"><g class="cls-41"><g class="cls-2"><path class="cls-32" d="M85.29,171.66,56.57,156a22.38,22.38,0,0,0,6.34-1.8l28.72,15.62a22.38,22.38,0,0,1-6.34,1.8"/><path class="cls-33" d="M91.63,169.86,62.91,154.24A14.83,14.83,0,0,0,65.16,153l28.72,15.63a16.26,16.26,0,0,1-2.25,1.28"/><path class="cls-34" d="M93.88,168.58,65.16,153a12.87,12.87,0,0,0,1.35-1.06l28.72,15.63a16.2,16.2,0,0,1-1.35,1.06"/><path class="cls-35" d="M95.23,167.52,66.51,151.89a13.75,13.75,0,0,0,1-1L96.23,166.5a12,12,0,0,1-1,1"/><path class="cls-36" d="M96.23,166.5,67.52,150.88a13.07,13.07,0,0,0,.81-1l28.72,15.62a10,10,0,0,1-.82,1"/><path class="cls-37" d="M97.05,165.47,68.33,149.85a11.62,11.62,0,0,0,.71-1.16l28.72,15.62a10.59,10.59,0,0,1-.71,1.16"/><path class="cls-38" d="M97.76,164.31,69,148.69a10.36,10.36,0,0,0,.68-1.52l28.72,15.62a11.53,11.53,0,0,1-.68,1.52"/><path class="cls-39" d="M98.44,162.79,69.72,147.17a13,13,0,0,0,.77-4.54c0-3.91-1.42-6.66-4.08-8.11l28.72,15.62c2.66,1.45,4.09,4.2,4.08,8.11a13,13,0,0,1-.77,4.54"/></g></g></g><polygon class="cls-3" points="73.36 173.34 44.64 157.72 56.57 156.04 85.28 171.66 73.36 173.34"/><g class="cls-2"><g class="cls-42"><g class="cls-2"><path class="cls-32" d="M91.34,135.22,62.62,119.59a29.78,29.78,0,0,1,11.52.4l28.72,15.63a29.6,29.6,0,0,0-11.52-.4"/><path class="cls-33" d="M102.86,135.62,74.14,120a19.23,19.23,0,0,1,3.65,1.34L106.51,137a18.55,18.55,0,0,0-3.65-1.33"/><path class="cls-34" d="M106.51,137,77.79,121.33l.64.33,28.72,15.62-.64-.33"/></g></g></g><polygon class="cls-24" points="56.66 225.69 27.94 210.07 28.1 124.44 56.82 140.07 56.66 225.69"/><path class="cls-6" d="M100.62,174.31c10.77-.62,18.67,6.75,18.65,18.08,0,15.07-10.55,26-27.48,28.36l-35.13,4.94.16-85.62,34.52-4.85c14.9-2.1,24.24,4.84,24.21,17.95,0,9.37-6.52,18.12-14.93,20.67ZM87.58,208c9.56-1.35,14.74-6.47,14.75-14.65,0-8-5.3-11.54-15.09-10.16l-13.9,1.95,0,24.87,14.29-2M73.4,151.08l0,22.26,11.93-1.68c8.85-1.24,13.91-6.17,13.92-13.41,0-6.88-4.43-10.17-12.18-9.08L73.4,151.08"/><polygon class="cls-3" points="56.82 140.07 28.1 124.44 62.62 119.59 91.34 135.22 56.82 140.07"/></g><image width="512" height="512" transform="translate(325.17 51.5) scale(0.39)" xlink:href="../Telegram%20Desktop/star_14063413.png"/></svg>