<svg width="156" height="872" viewBox="0 0 156 872" fill="none" xmlns="http://www.w3.org/2000/svg">
<g clip-path="url(#clip0_4183_11)">
<mask id="path-1-outside-1_4183_11" maskUnits="userSpaceOnUse" x="4" y="0" width="151" height="863" fill="black">
<rect fill="white" x="4" width="151" height="863"/>
<path d="M150 797.879L150 860.281H9.08203L9.08203 798.953C9.08203 772.488 22.6563 755.887 44.2383 755.887C59.668 755.887 72.5586 767.41 74.8047 782.352H75.5859C77.0508 763.211 91.0156 749.148 109.668 749.148C134.473 749.148 150 767.801 150 797.879ZM31.0547 830.789H67.6758V809.598C67.6758 793.875 60.7422 784.891 48.8281 784.891C37.5 784.891 31.0547 792.801 31.0547 806.57V830.789ZM128.027 830.789L128.027 805.398C128.027 788.406 120.801 779.227 107.324 779.227C94.1406 779.227 87.1094 788.699 87.1094 806.082V830.789H128.027ZM150 640.066L115.82 650.809L115.82 700.32L150 711.062V741.336L9.08203 692.41L9.08203 657.742L150 608.719V640.066ZM36.0352 675.906L93.75 693.973L93.75 657.156L36.0352 675.223V675.906ZM32.1289 564.773H77.0508V539.383C77.0508 524.539 68.5547 515.848 54.5898 515.848C40.918 515.848 32.1289 525.027 32.1289 539.676V564.773ZM98.4375 564.773H150V594.266H9.08203L9.08203 536.551C9.08203 504.129 26.1719 485.574 54.0039 485.574C72.0703 485.574 87.6953 494.949 94.043 511.16L150 481.473V514.871L98.4375 541.141L98.4375 564.773ZM150 436.648V466.141L9.08203 466.141L9.08203 436.648L150 436.648ZM150 384.988L150 413.211L9.08203 413.211L9.08203 388.602L100.879 322.781V322H9.08203L9.08203 293.777H150V318.191L57.7148 384.109V384.988L150 384.988ZM6.64063 206.668C6.64063 164.969 34.668 138.699 79.5898 138.699C124.414 138.699 152.441 164.969 152.441 206.668C152.441 248.465 124.414 274.637 79.5898 274.637C34.668 274.637 6.64063 248.465 6.64063 206.668ZM31.25 206.668C31.25 229.715 50 244.559 79.5898 244.559C109.082 244.559 127.734 229.812 127.734 206.668C127.734 183.621 109.082 168.875 79.5898 168.875C50 168.875 31.25 183.621 31.25 206.668ZM150 50.6133V86.1602L9.08203 133.523L9.08203 100.516L119.629 68.2891V67.6055L9.08203 35.3789L9.08203 3.25L150 50.6133Z"/>
</mask>
<path d="M150 797.879L150 860.281H9.08203L9.08203 798.953C9.08203 772.488 22.6563 755.887 44.2383 755.887C59.668 755.887 72.5586 767.41 74.8047 782.352H75.5859C77.0508 763.211 91.0156 749.148 109.668 749.148C134.473 749.148 150 767.801 150 797.879ZM31.0547 830.789H67.6758V809.598C67.6758 793.875 60.7422 784.891 48.8281 784.891C37.5 784.891 31.0547 792.801 31.0547 806.57V830.789ZM128.027 830.789L128.027 805.398C128.027 788.406 120.801 779.227 107.324 779.227C94.1406 779.227 87.1094 788.699 87.1094 806.082V830.789H128.027ZM150 640.066L115.82 650.809L115.82 700.32L150 711.062V741.336L9.08203 692.41L9.08203 657.742L150 608.719V640.066ZM36.0352 675.906L93.75 693.973L93.75 657.156L36.0352 675.223V675.906ZM32.1289 564.773H77.0508V539.383C77.0508 524.539 68.5547 515.848 54.5898 515.848C40.918 515.848 32.1289 525.027 32.1289 539.676V564.773ZM98.4375 564.773H150V594.266H9.08203L9.08203 536.551C9.08203 504.129 26.1719 485.574 54.0039 485.574C72.0703 485.574 87.6953 494.949 94.043 511.16L150 481.473V514.871L98.4375 541.141L98.4375 564.773ZM150 436.648V466.141L9.08203 466.141L9.08203 436.648L150 436.648ZM150 384.988L150 413.211L9.08203 413.211L9.08203 388.602L100.879 322.781V322H9.08203L9.08203 293.777H150V318.191L57.7148 384.109V384.988L150 384.988ZM6.64063 206.668C6.64063 164.969 34.668 138.699 79.5898 138.699C124.414 138.699 152.441 164.969 152.441 206.668C152.441 248.465 124.414 274.637 79.5898 274.637C34.668 274.637 6.64063 248.465 6.64063 206.668ZM31.25 206.668C31.25 229.715 50 244.559 79.5898 244.559C109.082 244.559 127.734 229.812 127.734 206.668C127.734 183.621 109.082 168.875 79.5898 168.875C50 168.875 31.25 183.621 31.25 206.668ZM150 50.6133V86.1602L9.08203 133.523L9.08203 100.516L119.629 68.2891V67.6055L9.08203 35.3789L9.08203 3.25L150 50.6133Z" fill="#141414"/>
<path d="M150 860.281V862.281H152V860.281H150ZM9.08203 860.281H7.08203V862.281H9.08203V860.281ZM74.8047 782.352L72.8269 782.649L73.0829 784.352H74.8047V782.352ZM75.5859 782.352V784.352H77.4387L77.5801 782.504L75.5859 782.352ZM31.0547 830.789H29.0547V832.789H31.0547V830.789ZM67.6758 830.789V832.789H69.6758V830.789H67.6758ZM128.027 830.789V832.789H130.027V830.789H128.027ZM87.1094 830.789H85.1094V832.789H87.1094V830.789ZM150 797.879H148L148 860.281H150H152L152 797.879H150ZM150 860.281V858.281H9.08203V860.281V862.281H150V860.281ZM9.08203 860.281H11.082L11.082 798.953H9.08203H7.08203L7.08203 860.281H9.08203ZM9.08203 798.953H11.082C11.082 786.042 14.3939 775.767 20.1159 768.761C25.8016 761.799 34.0056 757.887 44.2383 757.887V755.887V753.887C32.8889 753.887 23.5149 758.275 17.0179 766.231C10.5573 774.141 7.08203 785.399 7.08203 798.953H9.08203ZM44.2383 755.887V757.887C58.6517 757.887 70.724 768.66 72.8269 782.649L74.8047 782.352L76.7825 782.054C74.3932 766.161 60.6842 753.887 44.2383 753.887V755.887ZM74.8047 782.352V784.352H75.5859V782.352V780.352H74.8047V782.352ZM75.5859 782.352L77.5801 782.504C78.9736 764.295 92.1682 751.148 109.668 751.148V749.148V747.148C89.863 747.148 75.1279 762.126 73.5918 782.199L75.5859 782.352ZM109.668 749.148V751.148C121.527 751.148 131.026 755.585 137.596 763.511C144.201 771.479 148 783.164 148 797.879H150H152C152 782.516 148.035 769.836 140.675 760.958C133.281 752.038 122.613 747.148 109.668 747.148V749.148ZM31.0547 830.789V832.789H67.6758V830.789V828.789H31.0547V830.789ZM67.6758 830.789H69.6758V809.598H67.6758H65.6758V830.789H67.6758ZM67.6758 809.598H69.6758C69.6758 801.478 67.8902 794.814 64.3081 790.133C60.6694 785.378 55.3434 782.891 48.8281 782.891V784.891V786.891C54.2269 786.891 58.3247 788.896 61.1314 792.564C63.9946 796.305 65.6758 801.994 65.6758 809.598H67.6758ZM48.8281 784.891V782.891C42.6612 782.891 37.6103 785.067 34.1457 789.3C30.7287 793.475 29.0547 799.405 29.0547 806.57H31.0547H33.0547C33.0547 799.966 34.6034 795.056 37.241 791.834C39.8311 788.669 43.6669 786.891 48.8281 786.891V784.891ZM31.0547 806.57H29.0547V830.789H31.0547H33.0547V806.57H31.0547ZM128.027 830.789H130.027L130.027 805.398H128.027H126.027L126.027 830.789H128.027ZM128.027 805.398H130.027C130.027 796.662 128.176 789.608 124.299 784.701C120.36 779.716 114.556 777.227 107.324 777.227V779.227V781.227C113.569 781.227 118.116 783.327 121.16 787.18C124.266 791.111 126.027 797.143 126.027 805.398H128.027ZM107.324 779.227V777.227C100.199 777.227 94.5107 779.819 90.6729 784.936C86.905 789.96 85.1094 797.168 85.1094 806.082H87.1094H89.1094C89.1094 797.614 90.8294 791.394 93.873 787.336C96.8467 783.371 101.266 781.227 107.324 781.227V779.227ZM87.1094 806.082H85.1094V830.789H87.1094H89.1094V806.082H87.1094ZM87.1094 830.789V832.789H128.027V830.789V828.789H87.1094V830.789ZM150 640.066L150.6 641.974L152 641.534V640.066H150ZM115.82 650.809L115.221 648.901L113.82 649.341V650.809H115.82ZM115.82 700.32H113.82V701.788L115.221 702.228L115.82 700.32ZM150 711.062H152V709.595L150.6 709.155L150 711.062ZM150 741.336L149.344 743.225L152 744.147V741.336H150ZM9.08203 692.41H7.08203V693.833L8.42606 694.3L9.08203 692.41ZM9.08203 657.742L8.42488 655.853L7.08203 656.32L7.08203 657.742H9.08203ZM150 608.719H152V605.905L149.343 606.83L150 608.719ZM36.0352 675.906H34.0352V677.376L35.4377 677.815L36.0352 675.906ZM93.75 693.973L93.1525 695.881L95.75 696.694V693.973H93.75ZM93.75 657.156H95.75V654.434L93.1525 655.248L93.75 657.156ZM36.0352 675.223L35.4377 673.314L34.0352 673.753V675.223H36.0352ZM150 640.066L149.4 638.158L115.221 648.901L115.82 650.809L116.42 652.717L150.6 641.974L150 640.066ZM115.82 650.809H113.82L113.82 700.32H115.82H117.82L117.82 650.809H115.82ZM115.82 700.32L115.221 702.228L149.4 712.97L150 711.062L150.6 709.155L116.42 698.412L115.82 700.32ZM150 711.062H148V741.336H150H152V711.062H150ZM150 741.336L150.656 739.447L9.73801 690.521L9.08203 692.41L8.42606 694.3L149.344 743.225L150 741.336ZM9.08203 692.41H11.082L11.082 657.742H9.08203H7.08203L7.08203 692.41H9.08203ZM9.08203 657.742L9.73918 659.631L150.657 610.608L150 608.719L149.343 606.83L8.42488 655.853L9.08203 657.742ZM150 608.719H148V640.066H150H152V608.719H150ZM36.0352 675.906L35.4377 677.815L93.1525 695.881L93.75 693.973L94.3475 692.064L36.6326 673.998L36.0352 675.906ZM93.75 693.973H95.75L95.75 657.156H93.75H91.75L91.75 693.973H93.75ZM93.75 657.156L93.1525 655.248L35.4377 673.314L36.0352 675.223L36.6326 677.131L94.3475 659.065L93.75 657.156ZM36.0352 675.223H34.0352V675.906H36.0352H38.0352V675.223H36.0352ZM32.1289 564.773H30.1289V566.773H32.1289V564.773ZM77.0508 564.773V566.773H79.0508V564.773H77.0508ZM98.4375 564.773H96.4375V566.773H98.4375V564.773ZM150 564.773H152V562.773H150V564.773ZM150 594.266V596.266H152V594.266H150ZM9.08203 594.266H7.08203V596.266H9.08203V594.266ZM94.043 511.16L92.1806 511.889L92.9986 513.978L94.9803 512.927L94.043 511.16ZM150 481.473H152V478.148L149.063 479.706L150 481.473ZM150 514.871L150.908 516.653L152 516.097V514.871H150ZM98.4375 541.141L97.5296 539.359L96.4375 539.915V541.141H98.4375ZM32.1289 564.773V566.773H77.0508V564.773V562.773H32.1289V564.773ZM77.0508 564.773H79.0508V539.383H77.0508H75.0508V564.773H77.0508ZM77.0508 539.383H79.0508C79.0508 531.585 76.8138 525.155 72.4995 520.663C68.1757 516.162 61.9944 513.848 54.5898 513.848V515.848V517.848C61.1501 517.848 66.1993 519.879 69.6148 523.434C73.0397 527 75.0508 532.337 75.0508 539.383H77.0508ZM54.5898 515.848V513.848C47.2907 513.848 41.1195 516.31 36.7801 520.894C32.4514 525.466 30.1289 531.953 30.1289 539.676H32.1289H34.1289C34.1289 532.75 36.201 527.323 39.6848 523.644C43.1579 519.975 48.2171 517.848 54.5898 517.848V515.848ZM32.1289 539.676H30.1289V564.773H32.1289H34.1289V539.676H32.1289ZM98.4375 564.773V566.773H150V564.773V562.773H98.4375V564.773ZM150 564.773H148V594.266H150H152V564.773H150ZM150 594.266V592.266H9.08203V594.266V596.266H150V594.266ZM9.08203 594.266H11.082L11.082 536.551H9.08203H7.08203L7.08203 594.266H9.08203ZM9.08203 536.551H11.082C11.082 520.674 15.2648 508.458 22.5986 500.236C29.906 492.042 40.5532 487.574 54.0039 487.574V485.574V483.574C39.6226 483.574 27.8089 488.384 19.6133 497.573C11.4441 506.733 7.08203 520.005 7.08203 536.551H9.08203ZM54.0039 485.574V487.574C71.3732 487.574 86.1766 496.556 92.1806 511.889L94.043 511.16L95.9053 510.431C89.2141 493.343 72.7674 483.574 54.0039 483.574V485.574ZM94.043 511.16L94.9803 512.927L150.937 483.239L150 481.473L149.063 479.706L93.1056 509.393L94.043 511.16ZM150 481.473H148V514.871H150H152V481.473H150ZM150 514.871L149.092 513.089L97.5296 539.359L98.4375 541.141L99.3454 542.923L150.908 516.653L150 514.871ZM98.4375 541.141H96.4375L96.4375 564.773H98.4375H100.438L100.438 541.141H98.4375ZM150 436.648H152V434.648H150V436.648ZM150 466.141V468.141H152V466.141H150ZM9.08203 466.141H7.08203V468.141H9.08203V466.141ZM9.08203 436.648V434.648H7.08203V436.648H9.08203ZM150 436.648H148V466.141H150H152V436.648H150ZM150 466.141V464.141L9.08203 464.141V466.141V468.141L150 468.141V466.141ZM9.08203 466.141H11.082L11.082 436.648H9.08203H7.08203L7.08203 466.141H9.08203ZM9.08203 436.648V438.648L150 438.648V436.648V434.648L9.08203 434.648V436.648ZM150 384.988H152V382.988H150V384.988ZM150 413.211V415.211H152V413.211H150ZM9.08203 413.211H7.08203V415.211H9.08203V413.211ZM9.08203 388.602L7.91661 386.976L7.08203 387.575V388.602H9.08203ZM100.879 322.781L102.044 324.407L102.879 323.808V322.781H100.879ZM100.879 322H102.879V320H100.879V322ZM9.08203 322H7.08203V324H9.08203V322ZM9.08203 293.777V291.777H7.08203V293.777H9.08203ZM150 293.777H152V291.777H150V293.777ZM150 318.191L151.162 319.819L152 319.221V318.191H150ZM57.7148 384.109L56.5524 382.482L55.7148 383.08V384.109H57.7148ZM57.7148 384.988H55.7148V386.988H57.7148V384.988ZM150 384.988H148L148 413.211H150H152L152 384.988H150ZM150 413.211V411.211L9.08203 411.211V413.211V415.211L150 415.211V413.211ZM9.08203 413.211H11.082L11.082 388.602H9.08203H7.08203L7.08203 413.211H9.08203ZM9.08203 388.602L10.2475 390.227L102.044 324.407L100.879 322.781L99.7135 321.156L7.91661 386.976L9.08203 388.602ZM100.879 322.781H102.879V322H100.879H98.8789V322.781H100.879ZM100.879 322V320H9.08203V322V324H100.879V322ZM9.08203 322H11.082L11.082 293.777H9.08203H7.08203L7.08203 322H9.08203ZM9.08203 293.777L9.08203 295.777H150V293.777V291.777H9.08203V293.777ZM150 293.777H148V318.191H150H152V293.777H150ZM150 318.191L148.838 316.564L56.5524 382.482L57.7148 384.109L58.8773 385.737L151.162 319.819L150 318.191ZM57.7148 384.109H55.7148V384.988H57.7148H59.7148V384.109H57.7148ZM57.7148 384.988V386.988L150 386.988V384.988V382.988L57.7148 382.988V384.988ZM6.64063 206.668H8.64063C8.64063 186.284 15.4781 169.853 27.6341 158.509C39.8056 147.149 57.5138 140.699 79.5898 140.699V138.699V136.699C56.744 136.699 37.9776 143.384 24.9049 155.584C11.8169 167.799 4.64063 185.353 4.64063 206.668H6.64063ZM79.5898 138.699V140.699C101.616 140.699 119.3 147.149 131.459 158.508C143.604 169.853 150.441 186.284 150.441 206.668H152.441H154.441C154.441 185.353 147.265 167.799 134.19 155.585C121.13 143.385 102.388 136.699 79.5898 136.699V138.699ZM152.441 206.668H150.441C150.441 227.102 143.603 243.532 131.46 254.864C119.301 266.211 101.618 272.637 79.5898 272.637V274.637V276.637C102.386 276.637 121.128 269.977 134.189 257.788C147.266 245.585 154.441 228.031 154.441 206.668H152.441ZM79.5898 274.637V272.637C57.5118 272.637 39.8039 266.21 27.6334 254.863C15.4787 243.531 8.64063 227.102 8.64063 206.668H6.64063H4.64063C4.64063 228.031 11.8162 245.586 24.9057 257.789C37.9793 269.978 56.746 276.637 79.5898 276.637V274.637ZM31.25 206.668H29.25C29.25 218.789 34.2066 228.847 43.0878 235.828C51.9204 242.771 64.4829 246.559 79.5898 246.559V244.559L79.5898 242.559C65.1069 242.559 53.4995 238.924 45.5597 232.683C37.6684 226.481 33.25 217.594 33.25 206.668H31.25ZM79.5898 244.559V246.559C94.6464 246.559 107.162 242.796 115.96 235.863C124.807 228.892 129.734 218.832 129.734 206.668H127.734H125.734C125.734 217.649 121.336 226.534 113.484 232.722C105.582 238.948 94.0255 242.559 79.5898 242.559L79.5898 244.559ZM127.734 206.668H129.734C129.734 194.55 124.805 184.515 115.958 177.557C107.161 170.638 94.6464 166.875 79.5898 166.875V168.875V170.875C94.0254 170.875 105.583 174.485 113.485 180.701C121.338 186.878 125.734 195.739 125.734 206.668H127.734ZM79.5898 168.875V166.875C64.4858 166.875 51.9239 170.637 43.0906 177.554C34.2075 184.511 29.25 194.546 29.25 206.668H31.25H33.25C33.25 195.743 37.6675 186.882 45.5568 180.704C53.4961 174.486 65.104 170.875 79.5898 170.875V168.875ZM150 50.6133H152V49.1755L150.637 48.7175L150 50.6133ZM150 86.1602L150.637 88.0559L152 87.5979V86.1602H150ZM9.08203 133.523H7.08203V136.306L9.71921 135.419L9.08203 133.523ZM9.08203 100.516L8.52229 98.5956L7.08203 99.0154V100.516H9.08203ZM119.629 68.2891L120.189 70.2091L121.629 69.7893V68.2891H119.629ZM119.629 67.6055H121.629V66.1052L120.189 65.6854L119.629 67.6055ZM9.08203 35.3789H7.08203V36.8792L8.52229 37.299L9.08203 35.3789ZM9.08203 3.25L9.71921 1.35425L7.08203 0.467834V3.25H9.08203ZM150 50.6133H148V86.1602H150H152V50.6133H150ZM150 86.1602L149.363 84.2644L8.44485 131.628L9.08203 133.523L9.71921 135.419L150.637 88.0559L150 86.1602ZM9.08203 133.523H11.082L11.082 100.516H9.08203H7.08203L7.08203 133.523H9.08203ZM9.08203 100.516L9.64177 102.436L120.189 70.2091L119.629 68.2891L119.069 66.369L8.52229 98.5956L9.08203 100.516ZM119.629 68.2891H121.629V67.6055H119.629H117.629V68.2891H119.629ZM119.629 67.6055L120.189 65.6854L9.64177 33.4589L9.08203 35.3789L8.52229 37.299L119.069 69.5255L119.629 67.6055ZM9.08203 35.3789H11.082L11.082 3.25H9.08203H7.08203L7.08203 35.3789H9.08203ZM9.08203 3.25L8.44485 5.14575L149.363 52.509L150 50.6133L150.637 48.7175L9.71921 1.35425L9.08203 3.25Z" fill="#2E2F2F" mask="url(#path-1-outside-1_4183_11)"/>
</g>
<defs>
<clipPath id="clip0_4183_11">
<rect width="156" height="872" fill="white"/>
</clipPath>
</defs>
</svg>
