<svg id="Слой_1" data-name="Слой 1" xmlns="http://www.w3.org/2000/svg" xmlns:xlink="http://www.w3.org/1999/xlink" viewBox="0 0 560 288"><defs><style>.cls-1{fill:none;}.cls-2{isolation:isolate;}.cls-3{fill:#b4b4b4;}.cls-4{fill:#8b8b8b;}.cls-5{fill:gray;}.cls-6{fill:#dfdfdf;}.cls-7{clip-path:url(#clip-path);}.cls-8{fill:#9e9e9e;}.cls-9{fill:#a3a3a3;}.cls-10{fill:#a8a8a8;}.cls-11{clip-path:url(#clip-path-2);}.cls-12{fill:#999;}.cls-13{fill:#949494;}.cls-14{fill:#8f8f8f;}.cls-15{fill:#8a8a8a;}.cls-16{fill:#858585;}.cls-17{clip-path:url(#clip-path-3);}.cls-18{clip-path:url(#clip-path-4);}.cls-19{fill:#828282;}.cls-20{clip-path:url(#clip-path-5);}.cls-21{clip-path:url(#clip-path-6);}.cls-22{fill:#8d8d8d;}.cls-23{clip-path:url(#clip-path-7);}.cls-24{clip-path:url(#clip-path-8);}.cls-25{clip-path:url(#clip-path-9);}.cls-26{clip-path:url(#clip-path-10);}</style><clipPath id="clip-path"><path class="cls-1" d="M410.19,160.29l-22.8-12.4a17.11,17.11,0,0,0,10.75,1.69l22.8,12.4A17.09,17.09,0,0,1,410.19,160.29Z"/></clipPath><clipPath id="clip-path-2"><path class="cls-1" d="M408.92,92.61,431.71,105c6.67,3.63,10.59,12.33,10.57,24.71,0,17.92-8.37,30.44-21.34,32.26l-22.8-12.4c13-1.82,21.31-14.33,21.34-32.26C419.51,104.94,415.59,96.24,408.92,92.61Z"/></clipPath><clipPath id="clip-path-3"><path class="cls-1" d="M419.8,79.13l22.8,12.4c-5.89-3.2-13.15-4.35-21.53-3.17L398.28,76C406.66,74.78,413.92,75.93,419.8,79.13Z"/></clipPath><clipPath id="clip-path-4"><path class="cls-1" d="M399.36,173.83l-22.8-12.4c-10.6-5.77-16.68-18.21-16.64-35.74C360,98.38,374.74,79.27,398.28,76l22.79,12.4c-23.54,3.31-38.31,22.42-38.36,49.73C382.68,155.62,388.75,168.06,399.36,173.83Z"/></clipPath><clipPath id="clip-path-5"><path class="cls-1" d="M218.91,118.94l22.79,12.4c3.39,1.85,5.31,5.55,5.3,10.63,0,8.49-4.92,14.34-13.27,15.51l-22.8-12.39c8.36-1.18,13.26-7,13.28-15.52C224.22,124.49,222.29,120.79,218.91,118.94Z"/></clipPath><clipPath id="clip-path-6"><path class="cls-1" d="M230.86,105.9l22.79,12.4c-4.67-2.54-10.81-3.4-18.25-2.36l-22.79-12.4C220.05,102.5,226.19,103.36,230.86,105.9Z"/></clipPath><clipPath id="clip-path-7"><path class="cls-1" d="M71.3,173.44l22.79,12.4c3,1.64,4.59,4.67,4.58,9,0,8.19-5.19,13.31-14.76,14.66l-22.8-12.4c9.58-1.35,14.75-6.47,14.77-14.66C75.88,178.11,74.31,175.08,71.3,173.44Z"/></clipPath><clipPath id="clip-path-8"><path class="cls-1" d="M84.13,165.49l22.79,12.4a18.46,18.46,0,0,0-10-2.07l-22.79-12.4A18.5,18.5,0,0,1,84.13,165.49Z"/></clipPath><clipPath id="clip-path-9"><path class="cls-1" d="M68.67,139.24l22.79,12.4c2.66,1.45,4.09,4.2,4.09,8.12,0,7.23-5.09,12.16-13.94,13.41l-22.79-12.4c8.85-1.25,13.92-6.18,13.93-13.41C72.76,143.44,71.33,140.69,68.67,139.24Z"/></clipPath><clipPath id="clip-path-10"><path class="cls-1" d="M80.69,126.37l22.79,12.4c-4-2.2-9.41-3-15.81-2.07L64.88,124.3C71.27,123.41,76.64,124.17,80.69,126.37Z"/></clipPath></defs><g class="cls-2"><polygon class="cls-3" points="498.82 146.11 476.03 133.71 476.42 133.65 499.21 146.05 498.82 146.11"/><polygon class="cls-4" points="499.21 146.05 476.42 133.65 494.69 63.9 517.49 76.3 499.21 146.05"/><polygon class="cls-3" points="517.49 76.3 494.69 63.9 512.79 61.35 535.58 73.75 517.49 76.3"/><polygon class="cls-3" points="462.21 84.07 439.41 71.67 458 69.05 480.8 81.45 462.21 84.07"/><polygon class="cls-5" points="488.72 165.98 465.93 153.58 439.41 71.67 462.21 84.07 488.72 165.98"/><polygon class="cls-6" points="535.58 73.75 508.75 163.17 488.72 165.98 462.21 84.07 480.8 81.45 498.82 146.11 499.21 146.05 517.49 76.3 535.58 73.75"/></g><g class="cls-2"><g class="cls-2"><g class="cls-7"><g class="cls-2"><path class="cls-8" d="M410.19,160.29l-22.8-12.4.56.29,22.79,12.4c-.19-.09-.37-.19-.55-.29"/><path class="cls-9" d="M410.74,160.58,388,148.18a15.81,15.81,0,0,0,2.91,1.08l22.79,12.4a15.81,15.81,0,0,1-2.91-1.08"/><path class="cls-10" d="M413.65,161.66l-22.79-12.4a18.64,18.64,0,0,0,7.28.32l22.8,12.4a18.69,18.69,0,0,1-7.29-.32"/></g></g></g><g class="cls-2"><g class="cls-11"><g class="cls-2"><path class="cls-10" d="M420.94,162l-22.8-12.4a21.57,21.57,0,0,0,6.18-1.82l22.79,12.4a21.5,21.5,0,0,1-6.17,1.82"/><path class="cls-9" d="M427.11,160.16l-22.79-12.4a21.48,21.48,0,0,0,3.05-1.75l22.8,12.39a21.1,21.1,0,0,1-3.06,1.76"/><path class="cls-8" d="M430.17,158.4,407.37,146a22.1,22.1,0,0,0,2.23-1.76l22.79,12.4a23,23,0,0,1-2.22,1.75"/><path class="cls-12" d="M432.39,156.65l-22.79-12.4a23.11,23.11,0,0,0,1.9-1.93l22.79,12.4a23.11,23.11,0,0,1-1.9,1.93"/><path class="cls-13" d="M434.29,154.72l-22.79-12.4a24.71,24.71,0,0,0,1.77-2.25l22.8,12.4a24.8,24.8,0,0,1-1.78,2.25"/><path class="cls-14" d="M436.07,152.47l-22.8-12.4A28.17,28.17,0,0,0,415,137.2l22.8,12.4a30.08,30.08,0,0,1-1.76,2.87"/><path class="cls-15" d="M437.83,149.6,415,137.2a32.8,32.8,0,0,0,1.9-4.24l22.79,12.4a33.39,33.39,0,0,1-1.89,4.24"/><path class="cls-16" d="M439.72,145.36,416.93,133a45.86,45.86,0,0,0,2.55-15.64c0-12.38-3.89-21.08-10.56-24.71L431.71,105c6.67,3.63,10.59,12.33,10.57,24.71a45.86,45.86,0,0,1-2.56,15.64"/></g></g></g><g class="cls-2"><g class="cls-17"><g class="cls-2"><path class="cls-10" d="M421.07,88.36,398.28,76a38.31,38.31,0,0,1,14.94.6L436,89a38.3,38.3,0,0,0-14.94-.6"/><path class="cls-9" d="M436,89l-22.79-12.4a28.24,28.24,0,0,1,5.55,2L441.57,91A28.33,28.33,0,0,0,436,89"/><path class="cls-8" d="M441.57,91l-22.8-12.4c.35.17.69.34,1,.53l22.8,12.4c-.34-.19-.69-.36-1-.53"/></g></g></g><g class="cls-2"><g class="cls-18"><g class="cls-2"><path class="cls-16" d="M399.36,173.83l-22.8-12.4c-10.6-5.77-16.68-18.21-16.64-35.74a62.19,62.19,0,0,1,3.57-21.38l22.79,12.39a62.53,62.53,0,0,0-3.57,21.39c0,17.53,6,30,16.65,35.74"/><path class="cls-15" d="M386.28,116.7l-22.79-12.39A47.45,47.45,0,0,1,366.33,98l22.79,12.4a49.22,49.22,0,0,0-2.84,6.34"/><path class="cls-14" d="M389.12,110.36,366.33,98a45.84,45.84,0,0,1,2.78-4.54l22.8,12.4a44.09,44.09,0,0,0-2.79,4.54"/><path class="cls-13" d="M391.91,105.82l-22.8-12.4a43.32,43.32,0,0,1,2.95-3.74l22.79,12.4a43.22,43.22,0,0,0-2.94,3.74"/><path class="cls-12" d="M394.85,102.08l-22.79-12.4a42,42,0,0,1,3.32-3.35l22.79,12.4a43.74,43.74,0,0,0-3.32,3.35"/><path class="cls-8" d="M398.17,98.73l-22.79-12.4a40,40,0,0,1,4-3.19l22.8,12.4a40.16,40.16,0,0,0-4,3.19"/><path class="cls-9" d="M402.21,95.54l-22.8-12.4a42.39,42.39,0,0,1,5.83-3.35L408,92.19a41.7,41.7,0,0,0-5.82,3.35"/><path class="cls-10" d="M408,92.19l-22.79-12.4a45.1,45.1,0,0,1,13-3.83l22.79,12.4a45.2,45.2,0,0,0-13,3.83"/></g></g></g><path class="cls-6" d="M421.07,88.36c23.49-3.3,38.25,11.66,38.2,39S444.4,173.7,420.91,177s-38.25-11.66-38.2-38.91S397.53,91.67,421.07,88.36ZM420.94,162c13-1.82,21.3-14.34,21.34-32.26S434,101.5,421.05,103.33s-21.36,14.39-21.4,32.38,8.25,28.1,21.29,26.27"/></g><g class="cls-2"><polygon class="cls-3" points="355.63 154.84 332.83 142.44 333.27 142.38 356.07 154.78 355.63 154.84"/><polygon class="cls-19" points="356.07 154.78 333.27 142.38 333.38 86.57 356.17 98.97 356.07 154.78"/><polygon class="cls-3" points="356.17 98.97 333.38 86.57 349.28 84.33 372.07 96.73 356.17 98.97"/><polygon class="cls-5" points="358.16 184.33 335.37 171.93 298.34 121.05 321.13 133.45 358.16 184.33"/><polygon class="cls-3" points="304.8 106.19 282.01 93.79 295.87 91.84 318.66 104.24 304.8 106.19"/><polygon class="cls-19" points="304.64 191.85 281.85 179.45 282.01 93.79 304.8 106.19 304.64 191.85"/><polygon class="cls-6" points="372.07 96.73 371.91 182.4 358.16 184.33 321.13 133.45 320.64 133.52 320.53 189.62 304.64 191.85 304.8 106.19 318.66 104.24 355.63 154.84 356.07 154.78 356.17 98.97 372.07 96.73"/></g><g class="cls-2"><polygon class="cls-19" points="274.83 196.04 252.04 183.64 252.2 97.98 274.99 110.38 274.83 196.04"/><polygon class="cls-3" points="274.99 110.38 252.2 97.98 268.81 95.64 291.6 108.04 274.99 110.38"/><polygon class="cls-6" points="291.6 108.04 291.44 193.71 274.83 196.04 274.99 110.38 291.6 108.04"/></g><g class="cls-2"><polygon class="cls-5" points="247.45 199.89 224.65 187.49 209.92 158.23 232.71 170.63 247.45 199.89"/><g class="cls-2"><g class="cls-20"><g class="cls-2"><path class="cls-10" d="M233.73,157.48l-22.8-12.39a17.85,17.85,0,0,0,5.07-1.47L238.79,156a17.46,17.46,0,0,1-5.06,1.46"/><path class="cls-9" d="M238.79,156,216,143.62a15.73,15.73,0,0,0,2.09-1.19l22.79,12.39a14.21,14.21,0,0,1-2.09,1.2"/><path class="cls-8" d="M240.88,154.82l-22.79-12.39a14.55,14.55,0,0,0,1.37-1.09l22.79,12.4a12.05,12.05,0,0,1-1.37,1.08"/><path class="cls-12" d="M242.25,153.74l-22.79-12.4a13.76,13.76,0,0,0,1.08-1.08l22.79,12.4a13.76,13.76,0,0,1-1.08,1.08"/><path class="cls-13" d="M243.33,152.66l-22.79-12.4a12.9,12.9,0,0,0,.92-1.18l22.8,12.4c-.29.41-.6.8-.93,1.18"/><path class="cls-14" d="M244.26,151.48l-22.8-12.4a12.37,12.37,0,0,0,.86-1.39l22.79,12.4a13.94,13.94,0,0,1-.85,1.39"/><path class="cls-15" d="M245.11,150.09l-22.79-12.4a14.83,14.83,0,0,0,.85-1.9L246,148.19a13.56,13.56,0,0,1-.85,1.9"/><path class="cls-16" d="M246,148.19l-22.79-12.4a18.27,18.27,0,0,0,1-6.22c0-5.08-1.92-8.78-5.3-10.63l22.79,12.4c3.39,1.85,5.31,5.55,5.3,10.63a18,18,0,0,1-1,6.22"/></g></g></g><polygon class="cls-3" points="219.42 159.5 196.63 147.1 210.93 145.09 233.73 157.48 219.42 159.5"/><g class="cls-2"><g class="cls-21"><g class="cls-2"><path class="cls-10" d="M235.4,115.94l-22.79-12.4a34.22,34.22,0,0,1,13.29.44l22.8,12.4a34.29,34.29,0,0,0-13.3-.44"/><path class="cls-9" d="M248.7,116.38,225.9,104a21.62,21.62,0,0,1,4.21,1.53l22.8,12.4a22.1,22.1,0,0,0-4.21-1.53"/><path class="cls-8" d="M252.91,117.91l-22.8-12.4c.26.13.5.25.75.39l22.79,12.4c-.24-.14-.49-.26-.74-.39"/></g></g></g><polygon class="cls-3" points="202.89 120.51 180.1 108.11 212.6 103.54 235.4 115.94 202.89 120.51"/><polygon class="cls-19" points="202.73 206.17 179.94 193.77 180.1 108.11 202.89 120.51 202.73 206.17"/><path class="cls-6" d="M249.6,165.58l16.66,31.67-18.81,2.64-14.74-29.26L219.4,172.5l-.06,31.34-16.61,2.33.16-85.66,32.51-4.57c18.25-2.56,28.69,6.36,28.66,23.28C264,150.2,258.74,160.44,249.6,165.58Zm-15.87-8.1c8.35-1.17,13.26-7,13.27-15.51,0-8.31-5.14-12.93-13.39-11.77l-14.14,2-.05,27.31,14.31-2"/></g><g class="cls-2"><polygon class="cls-5" points="177 209.79 154.2 197.39 148.19 177.47 170.99 189.87 177 209.79"/><polygon class="cls-3" points="146.7 179.86 123.91 167.46 144.64 164.55 167.43 176.95 146.7 179.86"/><polygon class="cls-5" points="167.43 176.95 144.64 164.55 134.53 130.9 157.32 143.29 167.43 176.95"/><polygon class="cls-3" points="147.68 128.27 124.88 115.87 144.4 113.13 167.2 125.53 147.68 128.27"/><polygon class="cls-22" points="119.96 217.81 97.17 205.41 124.88 115.87 147.68 128.27 119.96 217.81"/><path class="cls-6" d="M167.2,125.53l27.45,81.78L177,209.79l-6-19.93-27.9,3.92L137,215.41l-17,2.4,27.72-89.54Zm-20.5,54.33L167.43,177l-10.11-33.66-.38.06L146.7,179.86"/></g><g class="cls-2"><g class="cls-2"><g class="cls-23"><g class="cls-2"><path class="cls-10" d="M83.91,209.53l-22.8-12.4a24,24,0,0,0,6.81-1.92l22.79,12.4a23.88,23.88,0,0,1-6.8,1.92"/><path class="cls-9" d="M90.71,207.61l-22.79-12.4a17.12,17.12,0,0,0,2.31-1.31L93,206.3a17.12,17.12,0,0,1-2.31,1.31"/><path class="cls-8" d="M93,206.3,70.23,193.9a15,15,0,0,0,1.38-1.09l22.8,12.39A15.28,15.28,0,0,1,93,206.3"/><path class="cls-12" d="M94.41,205.2l-22.8-12.39a12.62,12.62,0,0,0,1-1l22.8,12.4a14.3,14.3,0,0,1-1,1"/><path class="cls-13" d="M95.44,204.17l-22.8-12.4a12.2,12.2,0,0,0,.85-1.08l22.8,12.4c-.26.37-.55.73-.85,1.08"/><path class="cls-14" d="M96.29,203.09l-22.8-12.4a12.19,12.19,0,0,0,.77-1.24l22.79,12.4a12.1,12.1,0,0,1-.76,1.24"/><path class="cls-15" d="M97.05,201.85l-22.79-12.4a13.27,13.27,0,0,0,.73-1.63l22.79,12.4a13.27,13.27,0,0,1-.73,1.63"/><path class="cls-16" d="M97.78,200.22,75,187.82a15.88,15.88,0,0,0,.89-5.35c0-4.36-1.57-7.39-4.58-9l22.79,12.4c3,1.64,4.59,4.67,4.58,9a15.4,15.4,0,0,1-.89,5.35"/></g></g></g><g class="cls-2"><g class="cls-24"><g class="cls-2"><path class="cls-10" d="M96.94,175.82l-22.79-12.4a19.51,19.51,0,0,1,6.14.57l22.79,12.39a19.82,19.82,0,0,0-6.14-.56"/><path class="cls-9" d="M103.08,176.38,80.29,164a16.6,16.6,0,0,1,3.23,1.19l22.8,12.4a17.4,17.4,0,0,0-3.24-1.2"/><path class="cls-8" d="M106.32,177.58l-22.8-12.4.61.31,22.79,12.4-.6-.31"/></g></g></g><polygon class="cls-3" points="69.61 211.54 46.81 199.14 61.11 197.13 83.91 209.53 69.61 211.54"/><g class="cls-2"><g class="cls-25"><g class="cls-2"><path class="cls-10" d="M81.61,173.17l-22.79-12.4A22.13,22.13,0,0,0,65.17,159L88,171.36a22,22,0,0,1-6.35,1.81"/><path class="cls-9" d="M88,171.36,65.17,159a16.26,16.26,0,0,0,2.25-1.28l22.8,12.4A15.81,15.81,0,0,1,88,171.36"/><path class="cls-8" d="M90.22,170.08l-22.8-12.4a14.34,14.34,0,0,0,1.35-1.06L91.56,169a13,13,0,0,1-1.34,1.06"/><path class="cls-12" d="M91.56,169l-22.79-12.4a13.88,13.88,0,0,0,1-1L92.57,168a12.14,12.14,0,0,1-1,1"/><path class="cls-13" d="M92.57,168,69.78,155.6a11.46,11.46,0,0,0,.81-1L93.38,167a11.46,11.46,0,0,1-.81,1"/><path class="cls-14" d="M93.38,167l-22.79-12.4a12.48,12.48,0,0,0,.72-1.16l22.79,12.4a10.67,10.67,0,0,1-.72,1.16"/><path class="cls-15" d="M94.1,165.81l-22.79-12.4a11.49,11.49,0,0,0,.67-1.52l22.8,12.4a11.53,11.53,0,0,1-.68,1.52"/><path class="cls-16" d="M94.78,164.29,72,151.89a13,13,0,0,0,.77-4.53c0-3.92-1.42-6.67-4.08-8.12l22.79,12.4c2.66,1.45,4.09,4.2,4.09,8.12a13.5,13.5,0,0,1-.77,4.53"/></g></g></g><polygon class="cls-3" points="69.68 174.84 46.88 162.44 58.82 160.77 81.61 173.17 69.68 174.84"/><g class="cls-2"><g class="cls-26"><g class="cls-2"><path class="cls-10" d="M87.67,136.7,64.88,124.3a29.79,29.79,0,0,1,11.52.4l22.79,12.4a29.78,29.78,0,0,0-11.52-.4"/><path class="cls-9" d="M99.19,137.1,76.4,124.7A19.23,19.23,0,0,1,80.05,126l22.8,12.4a19.59,19.59,0,0,0-3.66-1.34"/><path class="cls-8" d="M102.85,138.44,80.05,126l.64.33,22.79,12.4-.63-.33"/></g></g></g><polygon class="cls-19" points="52.97 227.22 30.18 214.82 30.34 129.16 53.13 141.56 52.97 227.22"/><path class="cls-6" d="M96.94,175.82c10.78-.63,18.69,6.75,18.67,18.09,0,15.08-10.56,26-27.49,28.37L53,227.22l.16-85.66,34.54-4.86c14.91-2.09,24.24,4.84,24.22,18,0,9.38-6.52,18.12-15,20.67Zm-13,33.71c9.57-1.35,14.74-6.47,14.76-14.66,0-8-5.31-11.55-15.1-10.17l-13.92,2,0,24.89,14.3-2M69.72,152.58l0,22.26,11.93-1.67c8.85-1.25,13.92-6.18,13.94-13.41,0-6.9-4.44-10.19-12.19-9.1l-13.64,1.92"/><polygon class="cls-3" points="53.13 141.56 30.34 129.16 64.88 124.3 87.67 136.7 53.13 141.56"/></g></svg>