<svg width="326" height="326" viewBox="0 0 326 326" fill="none" xmlns="http://www.w3.org/2000/svg">
<g clip-path="url(#clip0_4241_2)">
<rect width="326" height="326" fill="white"/>
<path d="M101.5 328.5C107.333 323.5 126.2 309.8 137 309C147.8 308.2 167.333 299.333 175.5 295L267.353 241.874C267.737 241.652 267.933 241.206 267.805 240.782C266.353 235.943 261.446 228.807 251.641 229.49C251.549 229.496 251.463 229.514 251.376 229.546C239.238 234.018 208.687 246.363 194.121 254.301C193.09 254.863 193.522 255.591 194.576 255.073C218.414 243.363 257.819 220.927 277.773 158.219C277.906 157.799 277.754 157.329 277.376 157.1C273.002 154.454 264.715 152.522 259 159C251.953 166.987 220.185 217.352 188.583 228.797C187.512 229.185 186.949 227.837 187.894 227.202C208.453 213.391 222.069 189.549 217 172.5C210.862 151.852 183.5 117.7 175.5 118.5C171.028 118.666 165.273 126.994 165.986 143.19C165.994 143.39 166.064 143.585 166.184 143.745L186.858 171.311C186.952 171.435 187.015 171.579 187.041 171.732C188.936 182.682 184.405 195.535 171 200.5" stroke="black" stroke-width="8" stroke-linecap="round"/>
<path d="M229 197.5C240.333 176.5 264.9 131.8 262.5 127C259.5 121 246.5 123 237.5 131C230.3 137.4 221.5 162.667 218 174.5" stroke="black" stroke-width="8"/>
<path d="M1 325.5C6.33333 317.5 37.2 277 40 269C43.5 259 45.5 226.5 45.5 223C45.5 219.5 48.5 190 86.5 163C101.167 149 131.6 119.9 136 115.5C141.5 110 154 152 127.5 169C106.3 182.6 106 201 106 210C106 223.5 108.1 248.6 82.5 269" stroke="black" stroke-width="8" stroke-linecap="round"/>
<path d="M107 203C111.348 205.442 123.522 209.837 137 208.861" stroke="black" stroke-width="8" stroke-linecap="round"/>
<path d="M173.042 14.6195C166.065 16.1384 160.921 22.5073 157.314 33.7909C155.534 39.1834 154.139 47.0558 152.979 57.4403C147.664 102.299 145.684 145.334 145.824 200.969C145.983 226.691 145.56 245.46 144.506 257.043C142.759 278.298 137.964 289.84 130.245 291.52C127.425 292.134 124.774 292.101 122.269 291.304C126.447 289.784 128.093 287.35 127.332 283.853C126.596 280.474 122.747 278.504 118.442 279.441C113.247 280.572 111.032 283.252 111.92 287.331C113.391 294.091 122.842 296.794 131.303 294.952C142.139 292.593 149.574 283.894 153.633 268.972C155.796 261.055 157.849 246.203 159.694 224.683C162.994 187.709 164.574 148.546 164.458 107.31C164.382 78.3956 165.159 56.2535 166.64 40.9162C168.001 26.4593 170.537 18.8269 174.1 18.0513C177.069 17.405 179.719 17.4384 181.928 18.3003C177.75 19.8202 175.955 22.2863 176.716 25.7827C177.452 29.1626 181.301 31.1323 185.606 30.1951C190.801 29.064 193.016 26.3844 192.128 22.3052C190.733 15.895 181.651 12.7451 173.042 14.6195Z" fill="black" stroke="black" stroke-width="2"/>
</g>
<defs>
<clipPath id="clip0_4241_2">
<rect width="326" height="326" fill="white"/>
</clipPath>
</defs>
</svg>
