<svg width="361" height="396" viewBox="0 0 361 396" fill="none" xmlns="http://www.w3.org/2000/svg">
<g clip-path="url(#clip0_4191_38)">
<path d="M79.8047 383.391C79.0234 383.391 78.2943 383.352 77.6172 383.273C76.9401 383.195 76.4583 383.104 76.1719 383V376.398C76.5104 376.503 76.9922 376.594 77.6172 376.672C78.2682 376.724 78.9193 376.75 79.5703 376.75C81.6536 376.75 83.4505 376.086 84.9609 374.758C86.4714 373.404 87.9818 371.047 89.4922 367.688L88.9844 370.422L70.3516 329.68H78.125L92.0703 361.359H92.3047L105.508 329.68H113.008L95.7422 369.484C94.3099 372.792 92.8255 375.474 91.2891 377.531C89.7786 379.562 88.099 381.047 86.25 381.984C84.401 382.922 82.2526 383.391 79.8047 383.391ZM136.562 383.625C134.818 383.625 133.203 383.378 131.719 382.883C130.26 382.362 128.958 381.633 127.812 380.695C126.693 379.758 125.742 378.69 124.961 377.492H124.766V396.633H117.695V341.906H124.492V347.805H124.688C125.286 346.841 125.99 345.956 126.797 345.148C127.63 344.341 128.555 343.651 129.57 343.078C130.586 342.505 131.706 342.062 132.93 341.75C134.154 341.438 135.443 341.281 136.797 341.281C139.896 341.281 142.643 342.049 145.039 343.586C147.461 345.096 149.362 347.284 150.742 350.148C152.148 353.013 152.852 356.477 152.852 360.539V364.367C152.852 368.352 152.148 371.789 150.742 374.68C149.362 377.57 147.448 379.784 145 381.32C142.578 382.857 139.766 383.625 136.562 383.625ZM135.625 377.531C137.63 377.531 139.388 377.01 140.898 375.969C142.435 374.927 143.62 373.391 144.453 371.359C145.312 369.302 145.742 366.789 145.742 363.82V360.812C145.742 357.974 145.326 355.552 144.492 353.547C143.685 351.516 142.513 349.966 140.977 348.898C139.466 347.831 137.63 347.297 135.469 347.297C133.229 347.297 131.302 347.87 129.688 349.016C128.073 350.135 126.823 351.698 125.938 353.703C125.078 355.708 124.648 358.065 124.648 360.773V363.82C124.648 366.581 125.091 369.003 125.977 371.086C126.862 373.143 128.125 374.732 129.766 375.852C131.406 376.971 133.359 377.531 135.625 377.531ZM179.922 341.242C183.776 341.242 187.018 342.089 189.648 343.781C192.279 345.474 194.271 347.779 195.625 350.695C196.979 353.612 197.656 356.906 197.656 360.578V364.172C197.656 367.896 196.979 371.242 195.625 374.211C194.271 377.154 192.279 379.471 189.648 381.164C187.018 382.831 183.776 383.664 179.922 383.664C176.068 383.664 172.812 382.831 170.156 381.164C167.5 379.471 165.495 377.154 164.141 374.211C162.812 371.242 162.148 367.896 162.148 364.172V360.578C162.148 356.906 162.826 353.612 164.18 350.695C165.534 347.779 167.526 345.474 170.156 343.781C172.812 342.089 176.068 341.242 179.922 341.242ZM179.922 347.219C177.63 347.219 175.677 347.779 174.062 348.898C172.474 350.018 171.263 351.594 170.43 353.625C169.622 355.656 169.219 358.052 169.219 360.812V364.016C169.219 366.724 169.622 369.107 170.43 371.164C171.263 373.195 172.474 374.784 174.062 375.93C175.651 377.076 177.604 377.648 179.922 377.648C182.24 377.648 184.18 377.076 185.742 375.93C187.331 374.784 188.529 373.195 189.336 371.164C190.143 369.133 190.547 366.75 190.547 364.016V360.812C190.547 358.052 190.143 355.656 189.336 353.625C188.529 351.594 187.331 350.018 185.742 348.898C184.18 347.779 182.24 347.219 179.922 347.219ZM215.938 364.562H215.703V383H208.633V341.906H215.703V358.938H215.938L232.305 341.906H241.172L221.641 362.062L221.133 360.344L242.227 383H233.086L215.938 364.562ZM276.641 383V352.805H276.445L256.211 383H249.727V341.906H256.602V372.102H256.797L277.031 341.906H283.516V383H276.641Z" fill="#C6C6C6"/>
<path d="M261.6 82.5H159.2L152.237 61.556C148.755 51.0712 138.963 44 127.942 44H69.6C55.456 44 44 55.4858 44 69.6667V236.5C44 257.765 61.1904 275 82.4 275H261.6C282.81 275 300 257.765 300 236.5V121C300 99.7352 282.81 82.5 261.6 82.5Z" fill="url(#paint0_linear_4191_38)"/>
<path d="M127.942 50.4167C136.224 50.4167 143.546 55.704 146.157 63.5837L153.12 84.5277L154.592 88.9167H159.2H261.6C279.251 88.9167 293.6 103.303 293.6 121V236.5C293.6 254.197 279.251 268.583 261.6 268.583H82.4C64.7488 268.583 50.4 254.197 50.4 236.5V69.6667C50.4 59.0535 59.0144 50.4167 69.6 50.4167H127.942ZM127.942 44H69.6C55.456 44 44 55.4858 44 69.6667V236.5C44 257.765 61.1904 275 82.4 275H261.6C282.81 275 300 257.765 300 236.5V121C300 99.7352 282.81 82.5 261.6 82.5H159.2L152.237 61.556C148.755 51.0712 138.963 44 127.942 44Z" fill="url(#paint1_linear_4191_38)"/>
</g>
<defs>
<linearGradient id="paint0_linear_4191_38" x1="48.3008" y1="54.7287" x2="273.333" y2="279.176" gradientUnits="userSpaceOnUse">
<stop stop-color="white" stop-opacity="0.6"/>
<stop offset="1" stop-color="white" stop-opacity="0.3"/>
</linearGradient>
<linearGradient id="paint1_linear_4191_38" x1="48.3008" y1="54.7287" x2="273.333" y2="279.176" gradientUnits="userSpaceOnUse">
<stop stop-color="white" stop-opacity="0.6"/>
<stop offset="0.493" stop-color="white" stop-opacity="0"/>
<stop offset="0.997" stop-color="white" stop-opacity="0.3"/>
</linearGradient>
<clipPath id="clip0_4191_38">
<rect width="361" height="396" fill="white"/>
</clipPath>
</defs>
</svg>
