<svg width="361" height="361" viewBox="0 0 361 361" fill="none" xmlns="http://www.w3.org/2000/svg">
<g clip-path="url(#clip0_4076_76)">
<g clip-path="url(#clip1_4076_76)">
<path d="M180.5 307C146.95 307 114.774 293.672 91.051 269.949C67.3276 246.226 54 214.05 54 180.5C54 146.95 67.3276 114.774 91.051 91.051C114.774 67.3276 146.95 54 180.5 54C214.05 54 246.226 67.3276 269.949 91.051C293.672 114.774 307 146.95 307 180.5C307 214.05 293.672 246.226 269.949 269.949C246.226 293.672 214.05 307 180.5 307ZM278.537 205.8C282.817 189.205 282.817 171.795 278.537 155.2H230.214C231.387 172.046 231.387 188.954 230.214 205.8H278.537ZM268.165 231.1H227.431C225.313 246.348 221.275 261.267 215.414 275.501C237.636 267.304 256.296 251.598 268.165 231.1ZM156.212 205.8H204.788C206.161 188.961 206.161 172.039 204.788 155.2H156.212C154.839 172.039 154.839 188.961 156.212 205.8ZM159.374 231.1C164.561 261.46 173.669 281.7 180.5 281.7C187.331 281.7 196.439 261.46 201.626 231.1H159.374ZM82.4625 205.8H130.785C129.613 188.954 129.613 172.046 130.785 155.2H82.4625C78.1833 171.795 78.1833 189.205 82.4625 205.8ZM92.8355 231.1C104.704 251.598 123.364 267.304 145.586 275.501C140.273 263.357 136.225 248.177 133.568 231.1H92.8355ZM268.165 129.9C256.296 109.402 237.636 93.6962 215.414 85.4985C220.727 97.6425 224.775 112.822 227.431 129.9H268.165ZM159.374 129.9H201.626C196.439 99.54 187.331 79.3 180.5 79.3C173.669 79.3 164.561 99.54 159.374 129.9ZM92.8355 129.9H133.568C136.098 112.822 140.273 97.6425 145.586 85.4985C123.364 93.6962 104.704 109.402 92.8355 129.9Z" fill="white"/>
</g>
</g>
<defs>
<clipPath id="clip0_4076_76">
<rect width="361" height="361" fill="white"/>
</clipPath>
<clipPath id="clip1_4076_76">
<rect width="253" height="253" fill="white" transform="translate(54 54)"/>
</clipPath>
</defs>
</svg>
