<svg width="800" height="800" viewBox="0 0 800 800" fill="none" xmlns="http://www.w3.org/2000/svg">
<path d="M415.078 448.75L415.312 447.656C419.844 428.984 425.547 405.703 421.094 384.609C418.125 367.969 405.859 361.484 395.391 361.016C383.047 360.469 372.031 367.5 369.297 377.734C364.141 396.484 368.75 422.109 377.187 454.766C366.562 480.078 349.609 516.875 337.188 538.75C314.063 550.703 283.047 569.141 278.437 592.422C277.5 596.719 278.594 602.187 281.172 607.109C284.062 612.578 288.672 616.797 294.062 618.828C296.406 619.687 299.219 620.391 302.5 620.391C316.25 620.391 338.516 609.297 368.203 558.359C372.734 556.875 377.422 555.312 381.953 553.75C403.203 546.562 425.234 539.063 445.156 535.703C467.187 547.5 492.266 555.078 509.297 555.078C526.172 555.078 532.813 545.078 535.313 539.062C539.688 528.516 537.578 515.234 530.469 508.125C520.156 497.969 495.078 495.313 456.016 500.156C436.797 488.438 424.219 472.5 415.078 448.75ZM329.375 567.422C318.516 583.203 310.312 591.094 305.859 594.531C311.094 584.922 321.328 574.766 329.375 567.422ZM397.813 383.437C401.875 390.391 401.328 411.406 398.203 422.031C394.375 406.484 393.828 384.453 396.094 381.875C396.719 381.953 397.266 382.422 397.813 383.437ZM396.563 477.578C404.922 492.031 415.469 504.453 427.109 513.672C410.234 517.5 394.844 523.828 381.094 529.453C377.812 530.781 374.609 532.109 371.484 533.359C381.875 514.531 390.547 493.203 396.563 477.578ZM518.125 528.75C518.203 528.906 518.281 529.141 517.812 529.453H517.656L517.5 529.688C516.875 530.078 510.469 533.828 482.891 522.969C514.609 521.484 518.047 528.672 518.125 528.75ZM667.656 225.469L499.531 57.3438C494.844 52.6563 488.516 50 481.875 50H150C136.172 50 125 61.1719 125 75V725C125 738.828 136.172 750 150 750H650C663.828 750 675 738.828 675 725V243.203C675 236.562 672.344 230.156 667.656 225.469ZM617.344 254.688H470.312V107.656L617.344 254.688ZM618.75 693.75H181.25V106.25H417.188V275C417.188 283.702 420.645 292.048 426.798 298.202C432.952 304.355 441.298 307.812 450 307.812H618.75V693.75Z" fill="white"/>
</svg>
