<svg width="800" height="800" viewBox="0 0 800 800" fill="none" xmlns="http://www.w3.org/2000/svg">
<g clip-path="url(#clip0_4105_4)">
<path d="M683.567 59.5333L656.667 86.4333L646.567 76.3333C640.457 70.1486 632.162 66.6127 623.47 66.4879C614.777 66.3632 606.384 69.6598 600.1 75.6667C49.9667 596.467 60.4333 671.2 66.0667 711.333C66.3847 713.163 66.5851 715.011 66.6667 716.867L66.8334 733.2L83.1667 733.333C85.0097 733.431 86.8459 733.631 88.6667 733.933C93.5724 734.731 98.5303 735.166 103.5 735.233C148.333 735.233 251.1 693.667 666.667 260.333V344.633L454.933 554.867L478.4 578.5L700 358.5V225.433L724.3 199.9C730.311 193.62 733.614 185.229 733.495 176.537C733.377 167.845 729.847 159.547 723.667 153.433L713.567 143.333L740.467 116.433L683.567 59.5333ZM683.567 106.667L693.333 116.433L690 119.767L680.233 110L683.567 106.667ZM98.4667 701.533C96.8 680.433 105.8 632.133 266.367 456.6L343.367 533.6C167.8 694.133 119.433 703.167 98.4667 701.533ZM367.867 511L289 432.067C365.767 349.7 472.933 241.967 623 99.9L700.067 177C558.033 327.067 450.267 434.2 367.867 511Z" fill="white"/>
</g>
<defs>
<clipPath id="clip0_4105_4">
<rect width="800" height="800" fill="white"/>
</clipPath>
</defs>
</svg>
