<svg width="82" height="108" viewBox="0 0 82 108" fill="none" xmlns="http://www.w3.org/2000/svg">
<path d="M47.215 107.987H33.8267C33.8267 97.7556 33.8267 84.9267 33.8141 72.1638C13.1073 70.2686 5.02237 59.1491 1.92868 49.6863C-4.07665 31.3305 5.08717 8.65434 13.7182 0L23.1034 9.72786C17.7607 15.0821 10.4816 32.6823 14.6282 45.3658C17.0719 52.8273 23.5068 57.2141 33.8015 58.4335C33.8015 45.6044 33.7863 33.862 33.7863 26.1619C33.7863 8.04469 43.4053 2.65065 47.5403 1.16628C55.9893 -1.85545 66.5436 1.59039 72.6276 9.34351C80.9203 19.9328 83.3383 35.757 78.7746 49.673C72.9503 67.4588 57.3937 71.342 47.2024 72.1902C47.2024 84.9397 47.215 97.7425 47.215 107.974V107.987ZM53.9873 13.7303C53.2713 13.7303 52.583 13.8364 51.9728 14.0616C47.6436 15.6123 47.1747 23.0473 47.1747 26.1752C47.1747 33.8753 47.1747 45.6174 47.1898 58.4599C57.7164 57.3068 63.5029 53.2116 66.0746 45.3658C69.1809 35.8763 67.6101 24.8365 62.164 17.8786C60.1873 15.3605 56.8213 13.7436 53.9873 13.7436V13.7303Z" fill="#3F99FF"/>
</svg>
