<svg width="1889" height="1889" viewBox="0 0 1889 1889" fill="none" xmlns="http://www.w3.org/2000/svg">
<g clip-path="url(#clip0_4094_2)">
<path d="M1887.54 948.535C1889.49 946.583 1889.49 943.417 1887.54 941.464L1855.72 909.644C1853.76 907.692 1850.6 907.692 1848.64 909.644C1846.69 911.597 1846.69 914.763 1848.64 916.716L1876.93 945L1848.64 973.284C1846.69 975.237 1846.69 978.403 1848.64 980.355C1850.6 982.308 1853.76 982.308 1855.72 980.355L1887.54 948.535ZM0 945L4.37114e-07 950L1884 950L1884 945L1884 940L-4.37114e-07 940L0 945Z" fill="white"/>
<path d="M947.535 11.4645C945.583 9.51184 942.417 9.51184 940.464 11.4645L908.645 43.2843C906.692 45.2369 906.692 48.4027 908.645 50.3553C910.597 52.308 913.763 52.308 915.716 50.3553L944 22.071L972.284 50.3553C974.237 52.308 977.403 52.308 979.355 50.3553C981.308 48.4027 981.308 45.2369 979.355 43.2843L947.535 11.4645ZM944 1890L949 1890L949 15L944 15L939 15L939 1890L944 1890Z" fill="white"/>
<path d="M1023.05 44.21C1021.3 51.14 1014.93 58.35 1007.65 58.35C1003.8 58.35 1000.93 55.97 1000.93 52.33C1000.93 48.41 1003.66 47.99 1004.5 47.99C1005.76 47.99 1006.88 48.76 1006.88 50.23C1006.88 51.35 1006.04 53.24 1003.87 53.59C1003.38 53.66 1003.31 53.8 1003.31 53.8C1003.31 54.15 1004.29 56.81 1007.65 56.81C1011.15 56.81 1016.33 53.73 1018.99 42.18C1018.08 43.09 1015.91 44.77 1012.69 44.77C1008.91 44.77 1004.85 42.74 1004.85 36.65C1004.85 33.01 1006.67 27.83 1008.49 22.93C1009.47 20.2 1010.17 18.31 1010.17 16.63C1010.17 14.81 1009.4 14.6 1008.63 14.6C1004.57 14.6 1002.68 21.25 1002.12 23.42C1001.84 24.4 1001.77 24.54 1000.86 24.54C1000.51 24.54 999.81 24.54 999.81 23.84C999.81 23.42 1002.26 13.06 1008.77 13.06C1011.78 13.06 1014.09 15.23 1014.09 18.73C1014.09 20.06 1013.74 21.04 1013.18 22.51C1011.43 27.27 1009.12 33.57 1009.12 37.84C1009.12 40.15 1009.75 43.23 1012.9 43.23C1017.03 43.23 1019.83 39.03 1020.32 37L1025.43 16.42C1025.57 15.86 1026.06 13.83 1028.16 13.83C1029.56 13.83 1030.12 14.88 1030.12 15.65C1030.12 15.86 1029.98 16.21 1029.91 16.63L1023.05 44.21Z" fill="white"/>
<path d="M1874.16 1013.99C1874.16 1015.39 1870.59 1024.77 1863.38 1024.77C1861.56 1024.77 1858.13 1024 1856.73 1020.01C1855.54 1022.11 1853.23 1024.77 1849.87 1024.77C1846.65 1024.77 1843.71 1023.16 1843.71 1020.43C1843.71 1018.12 1845.46 1016.65 1847.21 1016.65C1848.12 1016.65 1849.59 1017.07 1849.59 1018.89C1849.59 1019.94 1848.96 1021.69 1846.86 1022.25C1848.05 1023.23 1849.73 1023.23 1849.94 1023.23C1854.14 1023.23 1855.61 1017.63 1856.73 1013.08L1858.34 1006.71C1858.97 1004.12 1859.81 1000.69 1859.81 999.01C1859.81 996.21 1858.48 994.6 1856.45 994.6C1853.65 994.6 1850.01 997.33 1848.12 1003.35C1847.77 1004.47 1847.77 1004.54 1846.86 1004.54C1846.51 1004.54 1845.81 1004.54 1845.81 1003.84C1845.81 1002.23 1849.59 993.06 1856.59 993.06C1858.34 993.06 1861.77 993.62 1863.31 997.82C1864.01 996.49 1866.32 993.06 1870.17 993.06C1872.2 993.06 1876.26 993.9 1876.26 997.47C1876.26 1000.2 1874.09 1001.18 1872.83 1001.18C1871.01 1001.18 1870.38 999.85 1870.38 998.94C1870.38 998.94 1870.38 996.28 1873.18 995.58C1872.06 994.6 1870.31 994.6 1870.1 994.6C1866.81 994.6 1864.92 998.45 1863.94 1002.09L1861.56 1011.68C1861 1014.06 1860.23 1017.07 1860.23 1018.75C1860.23 1022.39 1862.12 1023.23 1863.52 1023.23C1866.46 1023.23 1869.96 1020.5 1871.85 1014.48C1872.2 1013.36 1872.27 1013.29 1873.11 1013.29C1873.6 1013.29 1874.16 1013.29 1874.16 1013.99Z" fill="white"/>
<path d="M1323.16 1013.99C1323.16 1015.39 1319.59 1024.77 1312.38 1024.77C1310.56 1024.77 1307.13 1024 1305.73 1020.01C1304.54 1022.11 1302.23 1024.77 1298.87 1024.77C1295.65 1024.77 1292.71 1023.16 1292.71 1020.43C1292.71 1018.12 1294.46 1016.65 1296.21 1016.65C1297.12 1016.65 1298.59 1017.07 1298.59 1018.89C1298.59 1019.94 1297.96 1021.69 1295.86 1022.25C1297.05 1023.23 1298.73 1023.23 1298.94 1023.23C1303.14 1023.23 1304.61 1017.63 1305.73 1013.08L1307.34 1006.71C1307.97 1004.12 1308.81 1000.69 1308.81 999.01C1308.81 996.21 1307.48 994.6 1305.45 994.6C1302.65 994.6 1299.01 997.33 1297.12 1003.35C1296.77 1004.47 1296.77 1004.54 1295.86 1004.54C1295.51 1004.54 1294.81 1004.54 1294.81 1003.84C1294.81 1002.23 1298.59 993.06 1305.59 993.06C1307.34 993.06 1310.77 993.62 1312.31 997.82C1313.01 996.49 1315.32 993.06 1319.17 993.06C1321.2 993.06 1325.26 993.9 1325.26 997.47C1325.26 1000.2 1323.09 1001.18 1321.83 1001.18C1320.01 1001.18 1319.38 999.85 1319.38 998.94C1319.38 998.94 1319.38 996.28 1322.18 995.58C1321.06 994.6 1319.31 994.6 1319.1 994.6C1315.81 994.6 1313.92 998.45 1312.94 1002.09L1310.56 1011.68C1310 1014.06 1309.23 1017.07 1309.23 1018.75C1309.23 1022.39 1311.12 1023.23 1312.52 1023.23C1315.46 1023.23 1318.96 1020.5 1320.85 1014.48C1321.2 1013.36 1321.27 1013.29 1322.11 1013.29C1322.6 1013.29 1323.16 1013.29 1323.16 1013.99Z" fill="white"/>
<path d="M1456.16 1013.99C1456.16 1015.39 1452.59 1024.77 1445.38 1024.77C1443.56 1024.77 1440.13 1024 1438.73 1020.01C1437.54 1022.11 1435.23 1024.77 1431.87 1024.77C1428.65 1024.77 1425.71 1023.16 1425.71 1020.43C1425.71 1018.12 1427.46 1016.65 1429.21 1016.65C1430.12 1016.65 1431.59 1017.07 1431.59 1018.89C1431.59 1019.94 1430.96 1021.69 1428.86 1022.25C1430.05 1023.23 1431.73 1023.23 1431.94 1023.23C1436.14 1023.23 1437.61 1017.63 1438.73 1013.08L1440.34 1006.71C1440.97 1004.12 1441.81 1000.69 1441.81 999.01C1441.81 996.21 1440.48 994.6 1438.45 994.6C1435.65 994.6 1432.01 997.33 1430.12 1003.35C1429.77 1004.47 1429.77 1004.54 1428.86 1004.54C1428.51 1004.54 1427.81 1004.54 1427.81 1003.84C1427.81 1002.23 1431.59 993.06 1438.59 993.06C1440.34 993.06 1443.77 993.62 1445.31 997.82C1446.01 996.49 1448.32 993.06 1452.17 993.06C1454.2 993.06 1458.26 993.9 1458.26 997.47C1458.26 1000.2 1456.09 1001.18 1454.83 1001.18C1453.01 1001.18 1452.38 999.85 1452.38 998.94C1452.38 998.94 1452.38 996.28 1455.18 995.58C1454.06 994.6 1452.31 994.6 1452.1 994.6C1448.81 994.6 1446.92 998.45 1445.94 1002.09L1443.56 1011.68C1443 1014.06 1442.23 1017.07 1442.23 1018.75C1442.23 1022.39 1444.12 1023.23 1445.52 1023.23C1448.46 1023.23 1451.96 1020.5 1453.85 1014.48C1454.2 1013.36 1454.27 1013.29 1455.11 1013.29C1455.6 1013.29 1456.16 1013.29 1456.16 1013.99ZM1530.03 1006.5C1530.03 1007.9 1528.7 1007.9 1527.72 1007.9H1508.19V1027.5C1508.19 1028.48 1508.19 1029.81 1506.79 1029.81C1505.39 1029.81 1505.39 1028.48 1505.39 1027.5V1007.9H1485.79C1484.81 1007.9 1483.48 1007.9 1483.48 1006.5C1483.48 1005.1 1484.81 1005.1 1485.79 1005.1H1505.39V985.5C1505.39 984.52 1505.39 983.19 1506.79 983.19C1508.19 983.19 1508.19 984.52 1508.19 985.5V1005.1H1527.72C1528.7 1005.1 1530.03 1005.1 1530.03 1006.5ZM1609.92 1023.3C1609.92 1024 1609.29 1024 1608.17 1024H1563.79C1562.39 1024 1562.32 1023.93 1562.32 1023.58C1562.32 1023.58 1562.32 1023.3 1562.81 1022.6L1596.48 975C1597.25 973.88 1597.88 973.88 1598.51 973.88C1599.7 973.88 1599.7 974.16 1599.98 975.35L1609.78 1022.32C1609.85 1022.53 1609.92 1023.09 1609.92 1023.3ZM1602.85 1019.17L1594.87 980.67L1567.64 1019.17H1602.85ZM1648.8 1013.99C1648.8 1015.39 1645.23 1024.77 1638.02 1024.77C1636.2 1024.77 1632.77 1024 1631.37 1020.01C1630.18 1022.11 1627.87 1024.77 1624.51 1024.77C1621.29 1024.77 1618.35 1023.16 1618.35 1020.43C1618.35 1018.12 1620.1 1016.65 1621.85 1016.65C1622.76 1016.65 1624.23 1017.07 1624.23 1018.89C1624.23 1019.94 1623.6 1021.69 1621.5 1022.25C1622.69 1023.23 1624.37 1023.23 1624.58 1023.23C1628.78 1023.23 1630.25 1017.63 1631.37 1013.08L1632.98 1006.71C1633.61 1004.12 1634.45 1000.69 1634.45 999.01C1634.45 996.21 1633.12 994.6 1631.09 994.6C1628.29 994.6 1624.65 997.33 1622.76 1003.35C1622.41 1004.47 1622.41 1004.54 1621.5 1004.54C1621.15 1004.54 1620.45 1004.54 1620.45 1003.84C1620.45 1002.23 1624.23 993.06 1631.23 993.06C1632.98 993.06 1636.41 993.62 1637.95 997.82C1638.65 996.49 1640.96 993.06 1644.81 993.06C1646.84 993.06 1650.9 993.9 1650.9 997.47C1650.9 1000.2 1648.73 1001.18 1647.47 1001.18C1645.65 1001.18 1645.02 999.85 1645.02 998.94C1645.02 998.94 1645.02 996.28 1647.82 995.58C1646.7 994.6 1644.95 994.6 1644.74 994.6C1641.45 994.6 1639.56 998.45 1638.58 1002.09L1636.2 1011.68C1635.64 1014.06 1634.87 1017.07 1634.87 1018.75C1634.87 1022.39 1636.76 1023.23 1638.16 1023.23C1641.1 1023.23 1644.6 1020.5 1646.49 1014.48C1646.84 1013.36 1646.91 1013.29 1647.75 1013.29C1648.24 1013.29 1648.8 1013.29 1648.8 1013.99Z" fill="white"/>
<path d="M1420.57 1144.3C1420.57 1145 1419.94 1145 1418.82 1145H1374.44C1373.04 1145 1372.97 1144.93 1372.97 1144.58C1372.97 1144.58 1372.97 1144.3 1373.46 1143.6L1407.13 1096C1407.9 1094.88 1408.53 1094.88 1409.16 1094.88C1410.35 1094.88 1410.35 1095.16 1410.63 1096.35L1420.43 1143.32C1420.5 1143.53 1420.57 1144.09 1420.57 1144.3ZM1413.5 1140.17L1405.52 1101.67L1378.29 1140.17H1413.5ZM1459.45 1134.99C1459.45 1136.39 1455.88 1145.77 1448.67 1145.77C1446.85 1145.77 1443.42 1145 1442.02 1141.01C1440.83 1143.11 1438.52 1145.77 1435.16 1145.77C1431.94 1145.77 1429 1144.16 1429 1141.43C1429 1139.12 1430.75 1137.65 1432.5 1137.65C1433.41 1137.65 1434.88 1138.07 1434.88 1139.89C1434.88 1140.94 1434.25 1142.69 1432.15 1143.25C1433.34 1144.23 1435.02 1144.23 1435.23 1144.23C1439.43 1144.23 1440.9 1138.63 1442.02 1134.08L1443.63 1127.71C1444.26 1125.12 1445.1 1121.69 1445.1 1120.01C1445.1 1117.21 1443.77 1115.6 1441.74 1115.6C1438.94 1115.6 1435.3 1118.33 1433.41 1124.35C1433.06 1125.47 1433.06 1125.54 1432.15 1125.54C1431.8 1125.54 1431.1 1125.54 1431.1 1124.84C1431.1 1123.23 1434.88 1114.06 1441.88 1114.06C1443.63 1114.06 1447.06 1114.62 1448.6 1118.82C1449.3 1117.49 1451.61 1114.06 1455.46 1114.06C1457.49 1114.06 1461.55 1114.9 1461.55 1118.47C1461.55 1121.2 1459.38 1122.18 1458.12 1122.18C1456.3 1122.18 1455.67 1120.85 1455.67 1119.94C1455.67 1119.94 1455.67 1117.28 1458.47 1116.58C1457.35 1115.6 1455.6 1115.6 1455.39 1115.6C1452.1 1115.6 1450.21 1119.45 1449.23 1123.09L1446.85 1132.68C1446.29 1135.06 1445.52 1138.07 1445.52 1139.75C1445.52 1143.39 1447.41 1144.23 1448.81 1144.23C1451.75 1144.23 1455.25 1141.5 1457.14 1135.48C1457.49 1134.36 1457.56 1134.29 1458.4 1134.29C1458.89 1134.29 1459.45 1134.29 1459.45 1134.99Z" fill="white"/>
<path d="M1383 583C1388.83 587.23 1399.06 599.552 1393.29 615" stroke="white" stroke-width="7"/>
<line x1="1309" y1="945" x2="1309" y2="609" stroke="white" stroke-width="8" stroke-dasharray="13 13"/>
<line x1="945" y1="620" x2="1313" y2="620" stroke="white" stroke-width="8" stroke-dasharray="13 13"/>
<line x1="1518" y1="945" x2="1518" y2="512" stroke="white" stroke-width="8" stroke-dasharray="13 13"/>
<line x1="945" y1="508" x2="1522" y2="508" stroke="white" stroke-width="8" stroke-dasharray="13 13"/>
<path d="M262 1262C320.667 1119 529.1 816.8 893.5 752C1257.9 687.2 1646.33 437 1795 320" stroke="#FF00FF" stroke-width="15"/>
<path d="M1311.23 1064.23C1310.26 1065.21 1310.26 1066.79 1311.23 1067.77L1327.14 1083.68C1328.12 1084.65 1329.7 1084.65 1330.68 1083.68C1331.65 1082.7 1331.65 1081.12 1330.68 1080.14L1316.54 1066L1330.68 1051.86C1331.65 1050.88 1331.65 1049.3 1330.68 1048.32C1329.7 1047.35 1328.12 1047.35 1327.14 1048.32L1311.23 1064.23ZM1514.77 1067.77C1515.74 1066.79 1515.74 1065.21 1514.77 1064.23L1498.86 1048.32C1497.88 1047.35 1496.3 1047.35 1495.32 1048.32C1494.35 1049.3 1494.35 1050.88 1495.32 1051.86L1509.46 1066L1495.32 1080.14C1494.35 1081.12 1494.35 1082.7 1495.32 1083.68C1496.3 1084.65 1497.88 1084.65 1498.86 1083.68L1514.77 1067.77ZM1313 1066V1068.5H1513V1066V1063.5H1313V1066Z" fill="white"/>
<path d="M840.64 593.27C840.64 595.72 838.89 597.12 837.14 597.12C836.02 597.12 834.76 596.42 834.76 594.88C834.76 593.48 835.74 591.8 837.84 591.45C836.93 590.33 835.46 590.19 834.9 590.19C832.38 590.19 831.61 593.9 831.05 596.49L828.81 607.83H834.27C835.46 607.83 836.02 607.83 836.02 608.74C836.02 610 835.32 610 834.13 610H828.39L823.49 635.13C823 637.65 820.13 652.35 812.85 652.35C810.26 652.35 807.25 650.88 807.25 647.73C807.25 645.28 809 643.88 810.75 643.88C811.87 643.88 813.13 644.58 813.13 646.12C813.13 647.52 812.15 649.2 810.05 649.55C810.82 650.6 812.15 650.81 812.85 650.81C815.37 650.81 816.28 647.17 816.84 644.79C817.26 643.32 817.96 640.45 818.8 636.11L823.91 610H819.57C818.52 610 817.82 610 817.82 609.23C817.82 607.83 818.59 607.83 819.71 607.83H824.33L825.8 600.13C826.29 597.75 828.04 588.65 834.9 588.65C837.77 588.65 840.64 590.26 840.64 593.27ZM849.435 654.8C849.435 655.22 849.155 655.5 848.735 655.5C847.755 655.5 844.745 651.44 842.995 646.75C841.735 643.25 841.105 638.84 841.105 634.71C841.105 627.22 843.275 613.78 850.975 601.11C857.065 591.17 865.115 585.5 865.885 585.5C866.305 585.5 866.585 585.71 866.585 586.2C866.585 586.41 866.515 586.48 865.535 587.46C848.735 601.74 844.605 627.71 844.605 637.23C844.605 642.13 845.165 648.08 848.945 653.82C849.435 654.52 849.435 654.8 849.435 654.8ZM893.267 627.99C893.267 629.39 889.697 638.77 882.487 638.77C880.667 638.77 877.237 638 875.837 634.01C874.647 636.11 872.337 638.77 868.977 638.77C865.757 638.77 862.817 637.16 862.817 634.43C862.817 632.12 864.567 630.65 866.317 630.65C867.227 630.65 868.697 631.07 868.697 632.89C868.697 633.94 868.067 635.69 865.967 636.25C867.157 637.23 868.837 637.23 869.047 637.23C873.247 637.23 874.717 631.63 875.837 627.08L877.447 620.71C878.077 618.12 878.917 614.69 878.917 613.01C878.917 610.21 877.587 608.6 875.557 608.6C872.757 608.6 869.117 611.33 867.227 617.35C866.877 618.47 866.877 618.54 865.967 618.54C865.617 618.54 864.917 618.54 864.917 617.84C864.917 616.23 868.697 607.06 875.697 607.06C877.447 607.06 880.877 607.62 882.417 611.82C883.117 610.49 885.427 607.06 889.277 607.06C891.307 607.06 895.367 607.9 895.367 611.47C895.367 614.2 893.197 615.18 891.937 615.18C890.117 615.18 889.487 613.85 889.487 612.94C889.487 612.94 889.487 610.28 892.287 609.58C891.167 608.6 889.417 608.6 889.207 608.6C885.917 608.6 884.027 612.45 883.047 616.09L880.667 625.68C880.107 628.06 879.337 631.07 879.337 632.75C879.337 636.39 881.227 637.23 882.627 637.23C885.567 637.23 889.067 634.5 890.957 628.48C891.307 627.36 891.377 627.29 892.217 627.29C892.707 627.29 893.267 627.29 893.267 627.99ZM918.318 606.29C918.318 613.78 916.148 627.22 908.448 639.89C902.358 649.83 894.308 655.5 893.538 655.5C893.118 655.5 892.838 655.29 892.838 654.8C892.838 654.59 892.908 654.52 893.888 653.54C910.688 639.26 914.818 613.29 914.818 603.77C914.818 598.87 914.258 592.92 910.478 587.18C909.988 586.48 909.988 586.2 909.988 586.2C909.988 585.78 910.268 585.5 910.688 585.5C911.668 585.5 914.678 589.56 916.428 594.25C917.688 597.75 918.318 602.16 918.318 606.29Z" fill="white"/>
<path d="M646.64 467.27C646.64 469.72 644.89 471.12 643.14 471.12C642.02 471.12 640.76 470.42 640.76 468.88C640.76 467.48 641.74 465.8 643.84 465.45C642.93 464.33 641.46 464.19 640.9 464.19C638.38 464.19 637.61 467.9 637.05 470.49L634.81 481.83H640.27C641.46 481.83 642.02 481.83 642.02 482.74C642.02 484 641.32 484 640.13 484H634.39L629.49 509.13C629 511.65 626.13 526.35 618.85 526.35C616.26 526.35 613.25 524.88 613.25 521.73C613.25 519.28 615 517.88 616.75 517.88C617.87 517.88 619.13 518.58 619.13 520.12C619.13 521.52 618.15 523.2 616.05 523.55C616.82 524.6 618.15 524.81 618.85 524.81C621.37 524.81 622.28 521.17 622.84 518.79C623.26 517.32 623.96 514.45 624.8 510.11L629.91 484H625.57C624.52 484 623.82 484 623.82 483.23C623.82 481.83 624.59 481.83 625.71 481.83H630.33L631.8 474.13C632.29 471.75 634.04 462.65 640.9 462.65C643.77 462.65 646.64 464.26 646.64 467.27ZM655.435 528.8C655.435 529.22 655.155 529.5 654.735 529.5C653.755 529.5 650.745 525.44 648.995 520.75C647.735 517.25 647.105 512.84 647.105 508.71C647.105 501.22 649.275 487.78 656.975 475.11C663.065 465.17 671.115 459.5 671.885 459.5C672.305 459.5 672.585 459.71 672.585 460.2C672.585 460.41 672.515 460.48 671.535 461.46C654.735 475.74 650.605 501.71 650.605 511.23C650.605 516.13 651.165 522.08 654.945 527.82C655.435 528.52 655.435 528.8 655.435 528.8ZM699.267 501.99C699.267 503.39 695.697 512.77 688.487 512.77C686.667 512.77 683.237 512 681.837 508.01C680.647 510.11 678.337 512.77 674.977 512.77C671.757 512.77 668.817 511.16 668.817 508.43C668.817 506.12 670.567 504.65 672.317 504.65C673.227 504.65 674.697 505.07 674.697 506.89C674.697 507.94 674.067 509.69 671.967 510.25C673.157 511.23 674.837 511.23 675.047 511.23C679.247 511.23 680.717 505.63 681.837 501.08L683.447 494.71C684.077 492.12 684.917 488.69 684.917 487.01C684.917 484.21 683.587 482.6 681.557 482.6C678.757 482.6 675.117 485.33 673.227 491.35C672.877 492.47 672.877 492.54 671.967 492.54C671.617 492.54 670.917 492.54 670.917 491.84C670.917 490.23 674.697 481.06 681.697 481.06C683.447 481.06 686.877 481.62 688.417 485.82C689.117 484.49 691.427 481.06 695.277 481.06C697.307 481.06 701.367 481.9 701.367 485.47C701.367 488.2 699.197 489.18 697.937 489.18C696.117 489.18 695.487 487.85 695.487 486.94C695.487 486.94 695.487 484.28 698.287 483.58C697.167 482.6 695.417 482.6 695.207 482.6C691.917 482.6 690.027 486.45 689.047 490.09L686.667 499.68C686.107 502.06 685.337 505.07 685.337 506.75C685.337 510.39 687.227 511.23 688.627 511.23C691.567 511.23 695.067 508.5 696.957 502.48C697.307 501.36 697.377 501.29 698.217 501.29C698.707 501.29 699.267 501.29 699.267 501.99ZM773.136 494.5C773.136 495.9 771.806 495.9 770.826 495.9H751.296V515.5C751.296 516.48 751.296 517.81 749.896 517.81C748.496 517.81 748.496 516.48 748.496 515.5V495.9H728.896C727.916 495.9 726.586 495.9 726.586 494.5C726.586 493.1 727.916 493.1 728.896 493.1H748.496V473.5C748.496 472.52 748.496 471.19 749.896 471.19C751.296 471.19 751.296 472.52 751.296 473.5V493.1H770.826C771.806 493.1 773.136 493.1 773.136 494.5ZM854.806 511.3C854.806 512 854.176 512 853.056 512H808.676C807.276 512 807.206 511.93 807.206 511.58C807.206 511.58 807.206 511.3 807.696 510.6L841.366 463C842.136 461.88 842.766 461.88 843.396 461.88C844.586 461.88 844.586 462.16 844.866 463.35L854.666 510.32C854.736 510.53 854.806 511.09 854.806 511.3ZM847.736 507.17L839.756 468.67L812.526 507.17H847.736ZM893.681 501.99C893.681 503.39 890.111 512.77 882.901 512.77C881.081 512.77 877.651 512 876.251 508.01C875.061 510.11 872.751 512.77 869.391 512.77C866.171 512.77 863.231 511.16 863.231 508.43C863.231 506.12 864.981 504.65 866.731 504.65C867.641 504.65 869.111 505.07 869.111 506.89C869.111 507.94 868.481 509.69 866.381 510.25C867.571 511.23 869.251 511.23 869.461 511.23C873.661 511.23 875.131 505.63 876.251 501.08L877.861 494.71C878.491 492.12 879.331 488.69 879.331 487.01C879.331 484.21 878.001 482.6 875.971 482.6C873.171 482.6 869.531 485.33 867.641 491.35C867.291 492.47 867.291 492.54 866.381 492.54C866.031 492.54 865.331 492.54 865.331 491.84C865.331 490.23 869.111 481.06 876.111 481.06C877.861 481.06 881.291 481.62 882.831 485.82C883.531 484.49 885.841 481.06 889.691 481.06C891.721 481.06 895.781 481.9 895.781 485.47C895.781 488.2 893.611 489.18 892.351 489.18C890.531 489.18 889.901 487.85 889.901 486.94C889.901 486.94 889.901 484.28 892.701 483.58C891.581 482.6 889.831 482.6 889.621 482.6C886.331 482.6 884.441 486.45 883.461 490.09L881.081 499.68C880.521 502.06 879.751 505.07 879.751 506.75C879.751 510.39 881.641 511.23 883.041 511.23C885.981 511.23 889.481 508.5 891.371 502.48C891.721 501.36 891.791 501.29 892.631 501.29C893.121 501.29 893.681 501.29 893.681 501.99ZM918.732 480.29C918.732 487.78 916.562 501.22 908.862 513.89C902.772 523.83 894.722 529.5 893.952 529.5C893.532 529.5 893.252 529.29 893.252 528.8C893.252 528.59 893.322 528.52 894.302 527.54C911.102 513.26 915.232 487.29 915.232 477.77C915.232 472.87 914.672 466.92 910.892 461.18C910.402 460.48 910.402 460.2 910.402 460.2C910.402 459.78 910.682 459.5 911.102 459.5C912.082 459.5 915.092 463.56 916.842 468.25C918.102 471.75 918.732 476.16 918.732 480.29Z" fill="white"/>
<path d="M1623.64 295.27C1623.64 297.72 1621.89 299.12 1620.14 299.12C1619.02 299.12 1617.76 298.42 1617.76 296.88C1617.76 295.48 1618.74 293.8 1620.84 293.45C1619.93 292.33 1618.46 292.19 1617.9 292.19C1615.38 292.19 1614.61 295.9 1614.05 298.49L1611.81 309.83H1617.27C1618.46 309.83 1619.02 309.83 1619.02 310.74C1619.02 312 1618.32 312 1617.13 312H1611.39L1606.49 337.13C1606 339.65 1603.13 354.35 1595.85 354.35C1593.26 354.35 1590.25 352.88 1590.25 349.73C1590.25 347.28 1592 345.88 1593.75 345.88C1594.87 345.88 1596.13 346.58 1596.13 348.12C1596.13 349.52 1595.15 351.2 1593.05 351.55C1593.82 352.6 1595.15 352.81 1595.85 352.81C1598.37 352.81 1599.28 349.17 1599.84 346.79C1600.26 345.32 1600.96 342.45 1601.8 338.11L1606.91 312H1602.57C1601.52 312 1600.82 312 1600.82 311.23C1600.82 309.83 1601.59 309.83 1602.71 309.83H1607.33L1608.8 302.13C1609.29 299.75 1611.04 290.65 1617.9 290.65C1620.77 290.65 1623.64 292.26 1623.64 295.27ZM1632.43 356.8C1632.43 357.22 1632.15 357.5 1631.73 357.5C1630.75 357.5 1627.74 353.44 1625.99 348.75C1624.73 345.25 1624.1 340.84 1624.1 336.71C1624.1 329.22 1626.27 315.78 1633.97 303.11C1640.06 293.17 1648.11 287.5 1648.88 287.5C1649.3 287.5 1649.58 287.71 1649.58 288.2C1649.58 288.41 1649.51 288.48 1648.53 289.46C1631.73 303.74 1627.6 329.71 1627.6 339.23C1627.6 344.13 1628.16 350.08 1631.94 355.82C1632.43 356.52 1632.43 356.8 1632.43 356.8ZM1676.27 329.99C1676.27 331.39 1672.7 340.77 1665.49 340.77C1663.67 340.77 1660.24 340 1658.84 336.01C1657.65 338.11 1655.34 340.77 1651.98 340.77C1648.76 340.77 1645.82 339.16 1645.82 336.43C1645.82 334.12 1647.57 332.65 1649.32 332.65C1650.23 332.65 1651.7 333.07 1651.7 334.89C1651.7 335.94 1651.07 337.69 1648.97 338.25C1650.16 339.23 1651.84 339.23 1652.05 339.23C1656.25 339.23 1657.72 333.63 1658.84 329.08L1660.45 322.71C1661.08 320.12 1661.92 316.69 1661.92 315.01C1661.92 312.21 1660.59 310.6 1658.56 310.6C1655.76 310.6 1652.12 313.33 1650.23 319.35C1649.88 320.47 1649.88 320.54 1648.97 320.54C1648.62 320.54 1647.92 320.54 1647.92 319.84C1647.92 318.23 1651.7 309.06 1658.7 309.06C1660.45 309.06 1663.88 309.62 1665.42 313.82C1666.12 312.49 1668.43 309.06 1672.28 309.06C1674.31 309.06 1678.37 309.9 1678.37 313.47C1678.37 316.2 1676.2 317.18 1674.94 317.18C1673.12 317.18 1672.49 315.85 1672.49 314.94C1672.49 314.94 1672.49 312.28 1675.29 311.58C1674.17 310.6 1672.42 310.6 1672.21 310.6C1668.92 310.6 1667.03 314.45 1666.05 318.09L1663.67 327.68C1663.11 330.06 1662.34 333.07 1662.34 334.75C1662.34 338.39 1664.23 339.23 1665.63 339.23C1668.57 339.23 1672.07 336.5 1673.96 330.48C1674.31 329.36 1674.38 329.29 1675.22 329.29C1675.71 329.29 1676.27 329.29 1676.27 329.99ZM1701.32 308.29C1701.32 315.78 1699.15 329.22 1691.45 341.89C1685.36 351.83 1677.31 357.5 1676.54 357.5C1676.12 357.5 1675.84 357.29 1675.84 356.8C1675.84 356.59 1675.91 356.52 1676.89 355.54C1693.69 341.26 1697.82 315.29 1697.82 305.77C1697.82 300.87 1697.26 294.92 1693.48 289.18C1692.99 288.48 1692.99 288.2 1692.99 288.2C1692.99 287.78 1693.27 287.5 1693.69 287.5C1694.67 287.5 1697.68 291.56 1699.43 296.25C1700.69 299.75 1701.32 304.16 1701.32 308.29Z" fill="#FF00FF"/>
<line x1="1306" y1="617" x2="1515" y2="617" stroke="white" stroke-width="10"/>
<path d="M1690.04 498.42C1690.04 498.6 1689.2 502.26 1687.88 504.54C1687.22 505.68 1685.9 507.66 1683.26 507.66C1681.04 507.66 1678.22 506.16 1678.22 501.84C1678.22 501.24 1678.22 500.82 1678.46 499.8C1678.64 498.96 1678.64 498.72 1678.64 498.3C1678.64 494.82 1674.8 493.56 1672.58 493.26L1669.52 505.44C1669.4 505.98 1668.98 507.66 1667.18 507.66C1666.04 507.66 1665.5 506.76 1665.5 506.1C1665.5 506.1 1665.56 505.44 1665.62 505.32L1674.5 469.92C1674.5 469.92 1674.68 469.08 1674.68 468.9C1674.68 468.3 1674.56 467.88 1671.68 467.88C1670.84 467.88 1670.24 467.88 1670.24 467.22C1670.24 466.08 1670.9 466.02 1671.62 465.96L1677.56 465.48C1677.74 465.42 1678.34 465.36 1678.52 465.36C1679 465.36 1679.36 465.54 1679.36 466.08C1679.36 466.08 1679.24 466.68 1679.18 466.86L1673.06 491.34C1675.16 490.32 1676.12 489.36 1679.54 485.4C1681.58 483 1684.16 480.48 1687.34 480.48C1690.04 480.48 1691.12 482.52 1691.12 484.08C1691.12 486.36 1689.44 487.44 1688.12 487.44C1686.56 487.44 1686.02 486.3 1686.02 485.52C1686.02 485.04 1686.32 482.94 1688.84 482.52C1688.84 482.52 1688.36 481.8 1687.22 481.8C1684.22 481.8 1681.88 484.56 1678.76 488.1C1677.14 489.96 1675.88 491.22 1674.5 492.06C1678.28 492.6 1682.48 494.22 1682.48 498.3C1682.48 499.08 1682.48 499.14 1682.18 500.4C1682.12 500.7 1681.7 502.38 1681.7 503.76C1681.7 504.96 1681.82 506.34 1683.44 506.34C1686.08 506.34 1687.22 502.26 1688 499.2C1688.36 497.88 1688.42 497.82 1689.14 497.82C1689.56 497.82 1690.04 497.82 1690.04 498.42ZM1717.88 498.42C1717.88 499.62 1714.82 507.66 1708.64 507.66C1707.08 507.66 1704.14 507 1702.94 503.58C1701.92 505.38 1699.94 507.66 1697.06 507.66C1694.3 507.66 1691.78 506.28 1691.78 503.94C1691.78 501.96 1693.28 500.7 1694.78 500.7C1695.56 500.7 1696.82 501.06 1696.82 502.62C1696.82 503.52 1696.28 505.02 1694.48 505.5C1695.5 506.34 1696.94 506.34 1697.12 506.34C1700.72 506.34 1701.98 501.54 1702.94 497.64L1704.32 492.18C1704.86 489.96 1705.58 487.02 1705.58 485.58C1705.58 483.18 1704.44 481.8 1702.7 481.8C1700.3 481.8 1697.18 484.14 1695.56 489.3C1695.26 490.26 1695.26 490.32 1694.48 490.32C1694.18 490.32 1693.58 490.32 1693.58 489.72C1693.58 488.34 1696.82 480.48 1702.82 480.48C1704.32 480.48 1707.26 480.96 1708.58 484.56C1709.18 483.42 1711.16 480.48 1714.46 480.48C1716.2 480.48 1719.68 481.2 1719.68 484.26C1719.68 486.6 1717.82 487.44 1716.74 487.44C1715.18 487.44 1714.64 486.3 1714.64 485.52C1714.64 485.52 1714.64 483.24 1717.04 482.64C1716.08 481.8 1714.58 481.8 1714.4 481.8C1711.58 481.8 1709.96 485.1 1709.12 488.22L1707.08 496.44C1706.6 498.48 1705.94 501.06 1705.94 502.5C1705.94 505.62 1707.56 506.34 1708.76 506.34C1711.28 506.34 1714.28 504 1715.9 498.84C1716.2 497.88 1716.26 497.82 1716.98 497.82C1717.4 497.82 1717.88 497.82 1717.88 498.42ZM1761.55 492C1761.55 493.2 1760.41 493.2 1759.57 493.2H1744.15L1740.25 508.92C1740.07 509.58 1739.83 510.42 1738.93 510.42C1738.33 510.42 1737.73 510 1737.73 509.16C1737.73 508.92 1737.79 508.86 1737.97 508.02L1741.69 493.2H1726.81C1725.97 493.2 1724.83 493.2 1724.83 492C1724.83 490.8 1725.97 490.8 1726.81 490.8H1742.29L1746.19 475.08C1746.31 474.54 1746.55 473.58 1747.51 473.58C1748.23 473.58 1748.71 474.12 1748.71 474.78C1748.71 475.02 1748.71 475.08 1748.47 475.92L1744.75 490.8H1759.57C1760.41 490.8 1761.55 490.8 1761.55 492ZM1789.97 489.84C1789.97 498.66 1782.95 507.66 1776.23 507.66C1771.85 507.66 1769.33 503.58 1769.33 498.54C1769.33 496.26 1769.93 493.8 1769.99 493.62L1775.93 469.92C1775.93 469.92 1776.11 469.08 1776.11 468.9C1776.11 468.3 1775.99 467.88 1773.11 467.88C1772.27 467.88 1771.67 467.88 1771.67 467.22C1771.67 466.08 1772.33 466.02 1773.05 465.96L1778.99 465.48C1779.17 465.42 1779.77 465.36 1779.95 465.36C1780.43 465.36 1780.79 465.54 1780.79 466.08C1780.79 466.08 1780.67 466.68 1780.61 466.86L1776.41 483.66C1778.45 481.74 1780.49 480.48 1782.77 480.48C1786.37 480.48 1789.97 483.42 1789.97 489.84ZM1782.59 500.64C1784.33 496.8 1785.95 489.66 1785.95 487.14C1785.95 485.22 1785.35 481.8 1782.65 481.8C1780.37 481.8 1778.09 483.84 1776.35 486.24C1775.45 487.44 1775.45 487.56 1775.03 489C1773.29 495.84 1772.75 497.94 1772.75 500.58C1772.75 505.08 1774.73 506.34 1776.23 506.34C1779.29 506.34 1781.87 502.14 1782.59 500.64Z" fill="#00FFB2"/>
<path d="M1436.15 597.2C1437.75 597.2 1438.15 596.6 1438.25 596.3V596.15H1438.95C1439.5 596.15 1439.6 596.15 1439.6 596.25C1439.6 597.1 1437.75 600.7 1435.05 600.55C1432.2 600.25 1431.9 597.9 1431.75 597.1C1431.65 596.25 1431.7 596.25 1431.35 596.85C1429.35 599.95 1427.3 600.8 1424.9 600.5C1421.7 600 1419.9 596.95 1420 592.4C1420.1 589.75 1420.75 587.1 1422 584.65C1423.9 580.8 1426.7 578.4 1429.75 578C1432.3 577.75 1433.75 578.65 1434.5 581.15C1434.5 581.15 1435.1 578.25 1435.15 577.95H1439C1439 578.05 1438.5 580.25 1438.3 581.05C1437.45 584.3 1436.65 586.45 1435.45 589.05C1434 592.15 1433.8 593.55 1433.8 594.7C1433.8 596.7 1434.75 597.2 1436.15 597.2ZM1422.95 594.75C1422.95 597.4 1423.6 599.2 1426.1 599.2C1427.6 599.2 1429.15 598.65 1430.65 595.85C1431.85 593.4 1433.3 587.85 1433.5 584.15C1433.6 581.55 1432.9 579.3 1430.4 579.3C1429.1 579.3 1426.35 579.75 1424.55 585.8C1423.6 588.9 1422.95 592.9 1422.95 594.75Z" fill="white"/>
<path d="M1593.04 632.42C1593.04 632.6 1592.2 636.26 1590.88 638.54C1590.22 639.68 1588.9 641.66 1586.26 641.66C1584.04 641.66 1581.22 640.16 1581.22 635.84C1581.22 635.24 1581.22 634.82 1581.46 633.8C1581.64 632.96 1581.64 632.72 1581.64 632.3C1581.64 628.82 1577.8 627.56 1575.58 627.26L1572.52 639.44C1572.4 639.98 1571.98 641.66 1570.18 641.66C1569.04 641.66 1568.5 640.76 1568.5 640.1C1568.5 640.1 1568.56 639.44 1568.62 639.32L1577.5 603.92C1577.5 603.92 1577.68 603.08 1577.68 602.9C1577.68 602.3 1577.56 601.88 1574.68 601.88C1573.84 601.88 1573.24 601.88 1573.24 601.22C1573.24 600.08 1573.9 600.02 1574.62 599.96L1580.56 599.48C1580.74 599.42 1581.34 599.36 1581.52 599.36C1582 599.36 1582.36 599.54 1582.36 600.08C1582.36 600.08 1582.24 600.68 1582.18 600.86L1576.06 625.34C1578.16 624.32 1579.12 623.36 1582.54 619.4C1584.58 617 1587.16 614.48 1590.34 614.48C1593.04 614.48 1594.12 616.52 1594.12 618.08C1594.12 620.36 1592.44 621.44 1591.12 621.44C1589.56 621.44 1589.02 620.3 1589.02 619.52C1589.02 619.04 1589.32 616.94 1591.84 616.52C1591.84 616.52 1591.36 615.8 1590.22 615.8C1587.22 615.8 1584.88 618.56 1581.76 622.1C1580.14 623.96 1578.88 625.22 1577.5 626.06C1581.28 626.6 1585.48 628.22 1585.48 632.3C1585.48 633.08 1585.48 633.14 1585.18 634.4C1585.12 634.7 1584.7 636.38 1584.7 637.76C1584.7 638.96 1584.82 640.34 1586.44 640.34C1589.08 640.34 1590.22 636.26 1591 633.2C1591.36 631.88 1591.42 631.82 1592.14 631.82C1592.56 631.82 1593.04 631.82 1593.04 632.42ZM1656.36 620.18C1656.36 621.38 1655.22 621.38 1654.32 621.38H1618.5C1617.6 621.38 1616.46 621.38 1616.46 620.18C1616.46 618.98 1617.6 618.98 1618.44 618.98H1654.38C1655.22 618.98 1656.36 618.98 1656.36 620.18ZM1656.36 631.82C1656.36 633.02 1655.22 633.02 1654.38 633.02H1618.44C1617.6 633.02 1616.46 633.02 1616.46 631.82C1616.46 630.62 1617.6 630.62 1618.5 630.62H1654.32C1655.22 630.62 1656.36 630.62 1656.36 631.82ZM1701.22 633.56C1701.22 637.4 1699.54 641.66 1695.28 641.66C1693.12 641.66 1687.54 640.94 1687.54 633.56V617H1682.44V615.68C1688.32 615.44 1690.12 609.02 1690.18 604.1H1691.68V615.14H1700.26V617H1691.68V633.68C1691.68 634.7 1691.68 640.16 1695.7 640.16C1697.92 640.16 1699.72 637.88 1699.72 633.44V630.14H1701.22V633.56ZM1733.73 616.76C1733.73 618.14 1732.59 618.56 1731.99 618.56C1731.03 618.56 1730.25 617.84 1730.25 616.82C1730.25 616.1 1730.55 615.44 1731.21 615.2C1731.03 615.14 1730.61 615.14 1730.61 615.14C1729.53 615.14 1727.37 615.44 1725.21 617.48C1726.71 618.86 1727.67 621.08 1727.67 623.3C1727.67 627.92 1723.53 632.06 1717.95 632.06C1716.81 632.06 1714.35 631.88 1712.01 630.2C1710.99 631.4 1710.99 632.78 1710.99 633.02C1710.99 634.94 1712.25 636.8 1714.17 637.04C1714.59 637.1 1717.17 637.1 1718.67 637.1C1722.33 637.1 1725.81 637.1 1728.99 638.78C1732.05 640.46 1732.89 643.52 1732.89 645.62C1732.89 650.3 1726.65 653.36 1719.57 653.36C1712.25 653.36 1706.31 650.06 1706.31 645.74C1706.31 643.34 1708.23 640.76 1711.83 639.74C1709.97 638.54 1709.19 636.26 1709.19 634.4C1709.19 632.3 1710.27 630.32 1711.05 629.42C1709.55 628.16 1708.23 625.88 1708.23 623.24C1708.23 618.62 1712.37 614.48 1717.95 614.48C1719.27 614.48 1721.79 614.66 1724.31 616.64C1726.83 614.18 1729.47 613.82 1730.67 613.82C1733.01 613.82 1733.73 615.74 1733.73 616.76ZM1723.17 623.24C1723.17 621.86 1723.17 615.86 1717.95 615.86C1715.55 615.86 1714.17 617.54 1713.69 618.26C1712.79 619.76 1712.73 621.68 1712.73 623.3C1712.73 624.68 1712.73 630.68 1717.95 630.68C1720.35 630.68 1721.73 629 1722.21 628.28C1723.11 626.78 1723.17 624.86 1723.17 623.24ZM1729.77 645.74C1729.77 640.58 1723.05 640.58 1717.89 640.58H1714.35C1711.71 640.76 1709.43 642.98 1709.43 645.74C1709.43 648.92 1713.57 651.98 1719.62 651.98C1725.51 651.98 1729.77 648.98 1729.77 645.74ZM1750.89 655.4C1750.89 655.76 1750.65 656 1750.29 656C1749.45 656 1746.87 652.52 1745.37 648.5C1744.29 645.5 1743.75 641.72 1743.75 638.18C1743.75 631.76 1745.61 620.24 1752.21 609.38C1757.43 600.86 1764.33 596 1764.99 596C1765.35 596 1765.59 596.18 1765.59 596.6C1765.59 596.78 1765.53 596.84 1764.69 597.68C1750.29 609.92 1746.75 632.18 1746.75 640.34C1746.75 644.54 1747.23 649.64 1750.46 654.56C1750.89 655.16 1750.89 655.4 1750.89 655.4ZM1783.36 637.64C1785.28 637.64 1785.76 636.92 1785.88 636.56V636.38H1786.72C1787.38 636.38 1787.5 636.38 1787.5 636.5C1787.5 637.52 1785.28 641.84 1782.04 641.66C1778.62 641.3 1778.26 638.48 1778.08 637.52C1777.96 636.5 1778.02 636.5 1777.6 637.22C1775.2 640.94 1772.74 641.96 1769.86 641.6C1766.02 641 1763.86 637.34 1763.98 631.88C1764.1 628.7 1764.88 625.52 1766.38 622.58C1768.66 617.96 1772.02 615.08 1775.68 614.6C1778.74 614.3 1780.48 615.38 1781.38 618.38C1781.38 618.38 1782.1 614.9 1782.16 614.54H1786.78C1786.78 614.66 1786.18 617.3 1785.94 618.26C1784.92 622.16 1783.96 624.74 1782.52 627.86C1780.78 631.58 1780.54 633.26 1780.54 634.64C1780.54 637.04 1781.68 637.64 1783.36 637.64ZM1767.52 634.7C1767.52 637.88 1768.3 640.04 1771.3 640.04C1773.1 640.04 1774.96 639.38 1776.76 636.02C1778.2 633.08 1779.94 626.42 1780.18 621.98C1780.3 618.86 1779.46 616.16 1776.46 616.16C1774.9 616.16 1771.6 616.7 1769.44 623.96C1768.3 627.68 1767.52 632.48 1767.52 634.7ZM1812.1 613.82C1812.1 620.24 1810.24 631.76 1803.64 642.62C1798.42 651.14 1791.52 656 1790.86 656C1790.5 656 1790.26 655.82 1790.26 655.4C1790.26 655.22 1790.32 655.16 1791.16 654.32C1805.56 642.08 1809.1 619.82 1809.1 611.66C1809.1 607.46 1808.62 602.36 1805.38 597.44C1804.96 596.84 1804.96 596.6 1804.96 596.6C1804.96 596.24 1805.2 596 1805.56 596C1806.4 596 1808.98 599.48 1810.48 603.5C1811.56 606.5 1812.1 610.28 1812.1 613.82Z" fill="white"/>
<path d="M421 1071.92L1923.66 297" stroke="#00FFB3" stroke-width="12"/>
</g>
<defs>
<clipPath id="clip0_4094_2">
<rect width="1889" height="1889" fill="white"/>
</clipPath>
</defs>
</svg>
