<svg width="153" height="104" viewBox="0 0 153 104" fill="none" xmlns="http://www.w3.org/2000/svg">
<path d="M33.3491 95.188C32.9731 95.188 32.6313 95.1595 32.3237 95.1025C32.0275 95.057 31.8224 95.0114 31.7085 94.9658V91.6846C31.8794 91.7188 32.0902 91.7529 32.3408 91.7871C32.5915 91.8099 32.8535 91.8213 33.127 91.8213C33.6966 91.8213 34.2093 91.7415 34.665 91.582C35.1322 91.4225 35.5537 91.1776 35.9297 90.8472C36.3057 90.5054 36.6475 90.061 36.9551 89.5142L28.6152 70.3394H32.6997L38.8691 85.481H39.1084L45.0898 70.3394H49.106L41.5522 87.9419C40.8003 89.7078 40.0426 91.1263 39.2793 92.1973C38.516 93.2568 37.6615 94.0202 36.7158 94.4873C35.7702 94.9544 34.6479 95.188 33.3491 95.188ZM50.4048 100.981V77.0215H54.1304V80.0977H54.2158C54.569 79.3913 55.019 78.7817 55.5659 78.269C56.1242 77.7563 56.7622 77.3633 57.48 77.0898C58.1978 76.8164 58.9839 76.6797 59.8384 76.6797C61.3651 76.6797 62.6924 77.0614 63.8203 77.8247C64.9482 78.5767 65.8198 79.6533 66.4351 81.0547C67.0503 82.4447 67.3579 84.0967 67.3579 86.0107V86.0278C67.3579 87.9419 67.0446 89.5939 66.418 90.9839C65.8027 92.3739 64.9368 93.4505 63.8203 94.2139C62.7038 94.9772 61.3936 95.3589 59.8896 95.3589C59.0465 95.3589 58.2547 95.2222 57.5142 94.9487C56.785 94.6753 56.1413 94.2879 55.583 93.7866C55.0247 93.2739 54.5633 92.6701 54.1987 91.9751H54.1304V100.981H50.4048ZM58.8643 92.1631C59.8327 92.1631 60.6701 91.9181 61.3765 91.4282C62.0828 90.9269 62.624 90.2148 63 89.292C63.376 88.3691 63.564 87.2811 63.564 86.0278V86.0107C63.564 84.7347 63.376 83.6353 63 82.7124C62.624 81.7896 62.0828 81.0832 61.3765 80.5933C60.6701 80.1034 59.8327 79.8584 58.8643 79.8584C57.93 79.8584 57.104 80.1147 56.3862 80.6274C55.6685 81.1287 55.1045 81.8408 54.6943 82.7637C54.2956 83.6751 54.0962 84.7575 54.0962 86.0107V86.0278C54.0962 87.2697 54.3013 88.3521 54.7114 89.2749C55.1216 90.1864 55.6799 90.8984 56.3862 91.4111C57.104 91.9124 57.93 92.1631 58.8643 92.1631ZM78.2612 95.3589C76.5409 95.3589 75.0369 94.9829 73.7495 94.231C72.4735 93.4676 71.4823 92.391 70.7759 91.001C70.0695 89.5996 69.7163 87.9362 69.7163 86.0107V85.9766C69.7163 84.0625 70.0695 82.4105 70.7759 81.0205C71.4937 79.6305 72.4906 78.5596 73.7666 77.8076C75.054 77.0557 76.5465 76.6797 78.2441 76.6797C79.9531 76.6797 81.4456 77.0557 82.7217 77.8076C84.0091 78.5482 85.006 79.6134 85.7124 81.0034C86.4302 82.3934 86.7891 84.0511 86.7891 85.9766V86.0107C86.7891 87.9476 86.4302 89.611 85.7124 91.001C85.006 92.391 84.0148 93.4676 82.7388 94.231C81.4627 94.9829 79.9702 95.3589 78.2612 95.3589ZM78.2783 92.2485C79.2354 92.2485 80.0671 92.0036 80.7734 91.5137C81.4798 91.0238 82.0267 90.3174 82.4141 89.3945C82.8014 88.4603 82.9951 87.3324 82.9951 86.0107V85.9766C82.9951 84.6663 82.8014 83.5498 82.4141 82.627C82.0267 81.6927 81.4741 80.9863 80.7563 80.5078C80.0386 80.0179 79.2012 79.7729 78.2441 79.7729C77.2985 79.7729 76.4668 80.0179 75.749 80.5078C75.0426 80.9977 74.4901 81.7041 74.0913 82.627C73.6925 83.5498 73.4932 84.6663 73.4932 85.9766V86.0107C73.4932 87.3324 73.6868 88.4603 74.0742 89.3945C74.473 90.3174 75.0312 91.0238 75.749 91.5137C76.4668 92.0036 77.3099 92.2485 78.2783 92.2485ZM94.3257 86.9849H93.6763V95H89.9678V77.0215H93.6763V84.4214H94.3257L100.837 77.0215H105.195L97.4531 85.6519V85.2588L105.502 95H100.922L94.3257 86.9849ZM107.878 95V77.0215H111.552V89.5825H113.347L110.783 90.9839L119.96 77.0215H123.618V95H119.926V82.3877H118.149L120.695 80.9863L111.518 95H107.878Z" fill="white"/>
<path d="M87.8181 34.2728L73.5681 24.7728C73.2104 24.5341 72.7945 24.3971 72.3649 24.3762C71.9354 24.3554 71.5082 24.4517 71.129 24.6546C70.7499 24.8576 70.433 25.1598 70.2121 25.5288C69.9912 25.8978 69.8747 26.3199 69.875 26.75V45.75C69.8747 46.1801 69.9912 46.6022 70.2121 46.9712C70.433 47.3402 70.7499 47.6424 71.129 47.8454C71.5082 48.0483 71.9354 48.1446 72.3649 48.1238C72.7945 48.1029 73.2104 47.9659 73.5681 47.7272L87.8181 38.2272C88.1439 38.0104 88.4111 37.7165 88.5958 37.3715C88.7806 37.0266 88.8773 36.6413 88.8773 36.25C88.8773 35.8587 88.7806 35.4734 88.5958 35.1285C88.4111 34.7835 88.1439 34.4896 87.8181 34.2728ZM74.625 41.3117V31.2031L82.2191 36.25L74.625 41.3117ZM103.125 14.875H50.875C49.6152 14.875 48.407 15.3754 47.5162 16.2662C46.6254 17.157 46.125 18.3652 46.125 19.625V52.875C46.125 54.1348 46.6254 55.343 47.5162 56.2338C48.407 57.1246 49.6152 57.625 50.875 57.625H103.125C104.385 57.625 105.593 57.1246 106.484 56.2338C107.375 55.343 107.875 54.1348 107.875 52.875V19.625C107.875 18.3652 107.375 17.157 106.484 16.2662C105.593 15.3754 104.385 14.875 103.125 14.875ZM103.125 52.875H50.875V19.625H103.125V52.875ZM107.875 64.75C107.875 65.3799 107.625 65.984 107.179 66.4294C106.734 66.8748 106.13 67.125 105.5 67.125H48.5C47.8701 67.125 47.266 66.8748 46.8206 66.4294C46.3752 65.984 46.125 65.3799 46.125 64.75C46.125 64.1201 46.3752 63.516 46.8206 63.0706C47.266 62.6252 47.8701 62.375 48.5 62.375H105.5C106.13 62.375 106.734 62.6252 107.179 63.0706C107.625 63.516 107.875 64.1201 107.875 64.75Z" fill="white"/>
</svg>
