<svg width="361" height="361" viewBox="0 0 361 361" fill="none" xmlns="http://www.w3.org/2000/svg">
<g clip-path="url(#clip0_4076_52)">
<path d="M181.238 215.324C175.654 215.324 170.189 214.281 164.996 212.224L97.1495 185.328C97.1495 200.312 97.1495 222.722 97.1495 228.694C97.1495 249.74 134.795 266.797 181.24 266.797C227.684 266.797 265.334 249.74 265.334 228.694V185.326L197.481 212.224C192.287 214.281 186.822 215.324 181.238 215.324Z" fill="white"/>
<path d="M311.873 141.391L192.876 94.2213C185.402 91.2596 177.078 91.2596 169.603 94.2213L50.6076 141.391C47.8257 142.493 46 145.183 46 148.174C46 151.167 47.8271 153.856 50.6076 154.959L67.2653 161.562V208.795C63.5651 211.317 61.1349 215.566 61.1349 220.382C61.1349 224.794 63.1742 228.728 66.3591 231.297L61.2863 255.65C60.606 258.918 61.4323 262.319 63.5394 264.908C65.6451 267.497 68.8056 269 72.142 269H78.159C81.4968 269 84.6559 267.497 86.7616 264.908C88.8673 262.319 89.6937 258.918 89.0148 255.65L83.9404 231.297C87.1267 228.728 89.1662 224.792 89.1662 220.382C89.1662 215.565 86.7359 211.317 83.0357 208.795V167.813L169.223 201.98C176.943 205.04 185.538 205.04 193.257 201.98L311.876 154.959C314.657 153.857 316.483 151.167 316.483 148.174C316.482 145.183 314.655 142.493 311.873 141.391Z" fill="white"/>
</g>
<defs>
<clipPath id="clip0_4076_52">
<rect width="361" height="361" fill="white"/>
</clipPath>
</defs>
</svg>
