<svg width="153" height="104" viewBox="0 0 153 104" fill="none" xmlns="http://www.w3.org/2000/svg">
<g clip-path="url(#clip0_4201_222)">
<path d="M25.0239 84.0283V80.7812H28.4077C29.8774 80.7812 31.0509 80.4167 31.9282 79.6875C32.8055 78.9469 33.2441 77.9899 33.2441 76.8164V76.7822C33.2441 76.0531 33.0618 75.4321 32.6973 74.9194C32.3327 74.3953 31.8029 73.9966 31.1079 73.7231C30.4129 73.4383 29.5698 73.2959 28.5786 73.2959C27.6216 73.2959 26.7842 73.4326 26.0664 73.7061C25.36 73.9681 24.7961 74.3498 24.3745 74.8511C23.953 75.341 23.6966 75.9391 23.6055 76.6455L23.5713 76.8848H19.897L19.9141 76.6626C19.9938 75.2612 20.404 74.0592 21.1445 73.0566C21.8851 72.054 22.8991 71.285 24.1865 70.7495C25.474 70.2026 26.9779 69.9292 28.6982 69.9292C30.3617 69.9292 31.82 70.2026 33.0732 70.7495C34.3265 71.2964 35.3006 72.054 35.9956 73.0225C36.702 73.9909 37.0552 75.1074 37.0552 76.3721V76.4062C37.0552 77.7734 36.6336 78.9811 35.7905 80.0293C34.9474 81.0661 33.8423 81.744 32.4751 82.063V82.1997C34.1271 82.4048 35.4259 83.0542 36.3716 84.1479C37.3172 85.2417 37.79 86.6146 37.79 88.2666V88.3008C37.79 89.6566 37.3913 90.87 36.5938 91.9409C35.8076 93.0119 34.7253 93.8607 33.3467 94.4873C31.9681 95.1025 30.3958 95.4102 28.6299 95.4102C26.807 95.4102 25.2062 95.1253 23.8276 94.5557C22.4604 93.986 21.3781 93.1885 20.5806 92.1631C19.7944 91.1263 19.3615 89.93 19.2817 88.5742L19.2646 88.3691H23.0244L23.0415 88.5059C23.1326 89.2578 23.4118 89.9015 23.8789 90.437C24.346 90.9611 24.9784 91.3599 25.7759 91.6333C26.5848 91.9067 27.5361 92.0435 28.6299 92.0435C29.6895 92.0435 30.6123 91.884 31.3984 91.5649C32.1846 91.2459 32.7941 90.7902 33.2271 90.1978C33.66 89.6053 33.8765 88.9103 33.8765 88.1128V88.0786C33.8765 86.8026 33.4036 85.8114 32.458 85.105C31.5238 84.3872 30.2078 84.0283 28.5103 84.0283H25.0239ZM46.3179 95.3247C45.1216 95.3247 44.0734 95.0968 43.1733 94.6411C42.2733 94.1854 41.5726 93.5474 41.0713 92.7271C40.57 91.9067 40.3193 90.9611 40.3193 89.8901V89.856C40.3193 88.8078 40.5814 87.9077 41.1055 87.1558C41.6296 86.3924 42.3872 85.7886 43.3784 85.3442C44.381 84.8999 45.5887 84.6379 47.0015 84.5581L53.8032 84.1479V86.7456L47.4971 87.1387C46.3919 87.207 45.5374 87.4748 44.9336 87.9419C44.3411 88.3976 44.0449 89.0072 44.0449 89.7705V89.8047C44.0449 90.5908 44.3411 91.2118 44.9336 91.6675C45.5374 92.1232 46.335 92.3511 47.3262 92.3511C48.1921 92.3511 48.9668 92.1745 49.6504 91.8213C50.3454 91.4681 50.8923 90.9839 51.291 90.3687C51.6898 89.742 51.8892 89.0413 51.8892 88.2666V82.9175C51.8892 81.9263 51.5815 81.1515 50.9663 80.5933C50.3511 80.0236 49.4681 79.7388 48.3174 79.7388C47.2578 79.7388 46.4033 79.9666 45.7539 80.4224C45.1159 80.8781 44.7171 81.4648 44.5576 82.1826L44.5234 82.3364H41.0371L41.0542 82.1484C41.1453 81.1117 41.4928 80.1831 42.0967 79.3628C42.7005 78.5311 43.5379 77.876 44.6089 77.3975C45.6799 76.9189 46.9502 76.6797 48.4199 76.6797C49.8896 76.6797 51.16 76.9246 52.231 77.4146C53.3019 77.9045 54.1336 78.5938 54.7261 79.4824C55.3185 80.3711 55.6147 81.4136 55.6147 82.6099V95H51.8892V92.1631H51.8208C51.4676 92.8125 51.0119 93.3765 50.4536 93.855C49.8953 94.3221 49.263 94.6867 48.5566 94.9487C47.8617 95.1994 47.1154 95.3247 46.3179 95.3247ZM61.2544 99.8706H57.8364V92.0435H59.2891C59.9499 91.6219 60.4398 90.9212 60.7588 89.9414C61.0892 88.9616 61.2943 87.8678 61.374 86.6602L62.0234 77.0215H75.1484V92.0435H77.9341V99.8706H74.5161V95H61.2544V99.8706ZM71.4229 92.0435V79.9951H65.2192L64.7236 86.814C64.6439 87.8849 64.4901 88.8647 64.2622 89.7534C64.0343 90.6307 63.7039 91.3656 63.271 91.958V92.0435H71.4229ZM85.7271 95.3247C84.5308 95.3247 83.4826 95.0968 82.5825 94.6411C81.6825 94.1854 80.9818 93.5474 80.4805 92.7271C79.9792 91.9067 79.7285 90.9611 79.7285 89.8901V89.856C79.7285 88.8078 79.9906 87.9077 80.5146 87.1558C81.0387 86.3924 81.7964 85.7886 82.7876 85.3442C83.7902 84.8999 84.9979 84.6379 86.4106 84.5581L93.2124 84.1479V86.7456L86.9062 87.1387C85.8011 87.207 84.9466 87.4748 84.3428 87.9419C83.7503 88.3976 83.4541 89.0072 83.4541 89.7705V89.8047C83.4541 90.5908 83.7503 91.2118 84.3428 91.6675C84.9466 92.1232 85.7441 92.3511 86.7354 92.3511C87.6012 92.3511 88.376 92.1745 89.0596 91.8213C89.7546 91.4681 90.3014 90.9839 90.7002 90.3687C91.099 89.742 91.2983 89.0413 91.2983 88.2666V82.9175C91.2983 81.9263 90.9907 81.1515 90.3755 80.5933C89.7603 80.0236 88.8773 79.7388 87.7266 79.7388C86.667 79.7388 85.8125 79.9666 85.1631 80.4224C84.5251 80.8781 84.1263 81.4648 83.9668 82.1826L83.9326 82.3364H80.4463L80.4634 82.1484C80.5545 81.1117 80.902 80.1831 81.5059 79.3628C82.1097 78.5311 82.9471 77.876 84.0181 77.3975C85.089 76.9189 86.3594 76.6797 87.8291 76.6797C89.2988 76.6797 90.5692 76.9246 91.6401 77.4146C92.7111 77.9045 93.5428 78.5938 94.1353 79.4824C94.7277 80.3711 95.0239 81.4136 95.0239 82.6099V95H91.2983V92.1631H91.23C90.8768 92.8125 90.4211 93.3765 89.8628 93.855C89.3045 94.3221 88.6722 94.6867 87.9658 94.9487C87.2708 95.1994 86.5246 95.3247 85.7271 95.3247ZM113.43 95H109.721V87.2583H109.636C109.089 87.7938 108.411 88.2039 107.602 88.4888C106.805 88.7622 105.956 88.8989 105.056 88.8989C102.937 88.8989 101.313 88.3236 100.185 87.1729C99.0571 86.0221 98.4932 84.4727 98.4932 82.5244V77.0215H102.202V82.0972C102.202 83.2935 102.526 84.1935 103.176 84.7974C103.825 85.4012 104.777 85.7031 106.03 85.7031C106.531 85.7031 107.015 85.6519 107.482 85.5493C107.961 85.4354 108.388 85.2816 108.764 85.0879C109.152 84.8828 109.471 84.6436 109.721 84.3701V77.0215H113.43V95ZM117.395 95V77.0215H121.069V89.5825H122.863L120.3 90.9839L129.477 77.0215H133.134V95H129.443V82.3877H127.666L130.212 80.9863L121.035 95H117.395Z" fill="white"/>
<path d="M113.724 24.7515L77.6302 5.50148C77.282 5.3161 76.8937 5.21915 76.4992 5.21915C76.1048 5.21915 75.7164 5.3161 75.3683 5.50148L39.2746 24.7515C38.8896 24.9567 38.5676 25.2626 38.3431 25.6367C38.1186 26.0107 38 26.4388 38 26.875C38 27.3112 38.1186 27.7393 38.3431 28.1133C38.5676 28.4874 38.8896 28.7933 39.2746 28.9985L47.6242 33.4531V48.0169C47.6217 49.1988 48.0567 50.3399 48.8454 51.2202C52.7857 55.6086 61.6136 62.9687 76.4992 62.9687C81.4349 63.0096 86.3337 62.1155 90.9367 60.3339V70.1875C90.9367 70.8257 91.1903 71.4377 91.6415 71.889C92.0928 72.3402 92.7048 72.5938 93.343 72.5938C93.9812 72.5938 94.5932 72.3402 95.0445 71.889C95.4957 71.4377 95.7492 70.8257 95.7492 70.1875V58.0089C98.887 56.1975 101.722 53.907 104.153 51.2202C104.942 50.3399 105.377 49.1988 105.374 48.0169V33.4531L113.724 28.9985C114.109 28.7933 114.431 28.4874 114.655 28.1133C114.88 27.7393 114.998 27.3112 114.998 26.875C114.998 26.4388 114.88 26.0107 114.655 25.6367C114.431 25.2626 114.109 24.9567 113.724 24.7515ZM76.4992 58.1562C63.4844 58.1562 55.8296 51.7977 52.4367 48.0169V36.0187L75.3683 48.2485C75.7164 48.4339 76.1048 48.5308 76.4992 48.5308C76.8937 48.5308 77.282 48.4339 77.6302 48.2485L90.9367 41.1531V55.0913C87.1469 56.8599 82.3705 58.1562 76.4992 58.1562ZM100.562 48.0049C99.1193 49.6055 97.5055 51.0428 95.7492 52.291V38.5844L100.562 36.0187V48.0049ZM94.5461 33.7749L94.4799 33.7358L77.6362 24.7515C77.0742 24.4644 76.422 24.4096 75.82 24.5989C75.218 24.7882 74.7145 25.2063 74.4178 25.7633C74.1212 26.3202 74.0552 26.9715 74.2341 27.5766C74.4131 28.1817 74.8225 28.6924 75.3743 28.9985L89.4328 36.5L76.4992 43.3969L45.5188 26.875L76.4992 10.3531L107.48 26.875L94.5461 33.7749Z" fill="white"/>
</g>
<defs>
<clipPath id="clip0_4201_222">
<rect width="153" height="104" fill="white"/>
</clipPath>
</defs>
</svg>
